<?xml version="1.0" encoding="UTF-8" ?>
<!DOCTYPE svg PUBLIC "-//W3C//DTD SVG 1.1//EN" "http://www.w3.org/Graphics/SVG/1.1/DTD/svg11.dtd">
<svg width="401pt" height="389pt" viewBox="0 0 401 389" version="1.1" xmlns="http://www.w3.org/2000/svg">
<g id="#ffffffff">
<path fill="#ffffff" opacity="1.00" d=" M 188.41 7.42 C 197.32 6.74 206.37 6.60 215.25 7.63 C 246.84 10.00 277.82 20.39 304.40 37.62 C 310.19 41.81 316.13 45.82 321.66 50.35 C 328.28 56.74 335.84 62.18 341.46 69.55 C 360.00 89.96 374.25 114.40 382.11 140.87 C 388.97 164.51 391.92 189.49 388.94 213.99 C 386.17 241.64 376.94 268.64 362.21 292.20 C 357.81 300.18 351.72 307.01 346.18 314.19 C 335.14 327.83 321.67 339.26 307.40 349.39 C 288.73 362.22 267.60 371.30 245.60 376.62 C 233.95 379.59 221.96 380.79 210.02 381.93 C 172.99 383.43 135.28 374.71 103.44 355.54 C 85.81 344.79 69.43 331.71 56.25 315.75 C 46.16 303.79 36.98 290.88 30.33 276.67 C 22.33 261.74 17.53 245.30 14.22 228.76 C 6.56 188.86 12.63 146.42 31.32 110.32 C 37.19 97.84 45.48 86.73 53.89 75.88 C 60.25 69.23 65.67 61.63 73.19 56.17 C 79.18 49.66 86.81 45.14 93.71 39.71 C 99.29 35.84 105.29 32.63 111.05 29.06 C 135.00 16.67 161.46 9.04 188.41 7.42 M 192.69 45.69 C 166.37 65.81 139.93 85.78 113.68 105.97 C 96.81 118.59 80.11 131.45 63.35 144.22 C 63.33 194.36 63.40 244.51 63.34 294.66 C 79.73 294.58 96.12 294.49 112.52 294.58 C 137.00 294.63 161.48 294.56 185.96 294.59 C 237.95 294.50 289.94 294.48 341.93 294.62 C 341.43 244.50 341.49 194.37 341.88 144.25 C 329.04 134.36 316.07 124.64 303.24 114.74 C 301.38 113.29 299.46 111.92 297.47 110.66 L 297.49 110.07 C 296.90 109.73 296.31 109.39 295.74 109.05 C 276.29 94.44 257.19 79.36 237.58 64.97 C 227.65 56.99 217.26 49.59 207.27 41.68 C 205.65 40.65 204.10 38.99 202.08 38.96 C 198.52 40.52 195.80 43.43 192.69 45.69 Z" />
<path fill="#ffffff" opacity="1.00" d=" M 256.04 176.03 C 267.57 163.97 288.16 164.20 300.99 174.10 C 298.24 177.51 295.38 180.81 292.57 184.16 C 289.50 182.19 286.41 180.02 282.75 179.37 C 277.89 178.18 272.64 179.70 268.87 182.90 C 260.92 189.85 260.83 204.17 269.18 210.83 C 274.66 215.20 282.11 214.48 288.58 213.36 C 288.64 209.87 288.59 206.37 288.66 202.88 C 284.98 202.81 281.30 202.86 277.62 202.75 C 277.62 198.95 277.68 195.16 277.70 191.37 C 284.47 191.50 291.25 191.57 298.02 191.46 C 298.76 191.45 300.25 191.44 300.99 191.43 C 301.16 201.49 300.82 211.56 301.30 221.62 C 289.33 226.92 274.56 228.65 262.62 222.42 C 246.44 213.73 243.29 188.98 256.04 176.03 Z" />
<path fill="#ffffff" opacity="1.00" d=" M 127.61 168.61 C 131.40 168.44 135.19 168.28 138.98 167.99 C 139.85 168.56 140.72 169.14 141.58 169.72 C 149.24 188.12 156.92 206.50 164.48 224.94 C 159.37 225.04 154.27 225.03 149.16 224.95 C 147.60 221.32 146.15 217.65 144.81 213.93 C 137.55 214.01 130.30 213.83 123.05 213.91 C 121.76 217.61 120.39 221.28 118.95 224.92 C 118.37 225.02 117.21 225.23 116.63 225.34 C 112.42 225.13 108.21 224.96 104.01 224.78 C 111.78 206.02 119.69 187.31 127.61 168.61 M 133.77 184.29 C 131.53 190.53 129.45 196.82 127.00 202.99 C 131.68 203.00 136.35 203.04 141.03 202.96 C 138.45 196.80 136.75 190.26 133.77 184.29 Z" />
<path fill="#ffffff" opacity="1.00" d=" M 210.37 169.18 C 214.86 167.63 219.75 168.64 224.41 168.41 C 232.36 187.07 239.82 205.93 247.90 224.53 C 243.05 225.27 238.08 225.13 233.19 224.82 C 230.46 221.92 229.76 217.66 228.41 214.00 C 221.05 213.88 213.68 213.81 206.32 213.91 C 205.09 217.60 203.75 221.24 202.48 224.92 C 197.62 225.00 192.76 225.08 187.90 224.90 C 187.90 224.39 187.90 223.37 187.90 222.86 C 193.39 211.14 197.94 199.00 203.13 187.15 C 205.53 181.15 208.32 175.31 210.37 169.18 M 210.59 202.98 C 215.18 203.02 219.78 203.03 224.37 202.96 C 222.03 196.79 219.74 190.60 217.78 184.29 C 214.69 190.21 212.73 196.67 210.59 202.98 Z" />
<path fill="#ffffff" opacity="1.00" d=" M 169.02 168.66 C 173.71 168.53 178.41 168.50 183.11 168.45 C 182.71 187.30 183.17 206.17 182.89 225.03 C 182.19 225.03 180.79 225.04 180.09 225.04 C 176.42 225.01 172.76 225.01 169.10 224.91 C 168.87 213.35 169.11 201.78 168.93 190.22 C 169.01 183.03 169.00 175.85 169.02 168.66 Z" />
</g>
<g id="#7795aeff">
<path fill="#7795ae" opacity="1.00" d=" M 188.41 4.42 C 200.70 3.21 213.05 4.28 225.27 5.66 C 261.46 10.22 296.34 25.23 324.23 48.77 C 347.84 68.52 366.94 93.83 378.67 122.34 C 387.54 142.72 391.62 164.88 393.01 186.97 C 393.90 218.87 387.49 251.27 372.68 279.67 C 366.32 292.67 358.10 304.72 348.83 315.82 C 343.44 322.71 336.82 328.48 330.75 334.75 C 317.63 346.42 303.25 356.82 287.34 364.34 C 274.23 371.26 260.20 376.40 245.76 379.75 C 224.89 384.30 203.28 386.61 182.00 384.01 C 136.16 380.26 92.37 358.46 60.73 325.26 C 31.22 294.51 11.94 253.66 8.90 210.99 C 7.57 200.06 7.52 188.92 8.91 177.99 C 9.92 165.12 12.36 152.37 15.97 139.99 C 22.32 120.29 31.01 101.13 43.56 84.57 C 52.58 72.12 62.81 60.47 74.69 50.69 C 106.13 23.28 146.84 7.00 188.41 4.42 M 188.41 7.42 C 161.46 9.04 135.00 16.67 111.05 29.06 C 105.29 32.63 99.29 35.84 93.71 39.71 C 86.81 45.14 79.18 49.66 73.19 56.17 C 65.67 61.63 60.25 69.23 53.89 75.88 C 45.48 86.73 37.19 97.84 31.32 110.32 C 12.63 146.42 6.56 188.86 14.22 228.76 C 17.53 245.30 22.33 261.74 30.33 276.67 C 36.98 290.88 46.16 303.79 56.25 315.75 C 69.43 331.71 85.81 344.79 103.44 355.54 C 135.28 374.71 172.99 383.43 210.02 381.93 C 221.96 380.79 233.95 379.59 245.60 376.62 C 267.60 371.30 288.73 362.22 307.40 349.39 C 321.67 339.26 335.14 327.83 346.18 314.19 C 351.72 307.01 357.81 300.18 362.21 292.20 C 376.94 268.64 386.17 241.64 388.94 213.99 C 391.92 189.49 388.97 164.51 382.11 140.87 C 374.25 114.40 360.00 89.96 341.46 69.55 C 335.84 62.18 328.28 56.74 321.66 50.35 C 316.13 45.82 310.19 41.81 304.40 37.62 C 277.82 20.39 246.84 10.00 215.25 7.63 C 206.37 6.60 197.32 6.74 188.41 7.42 Z" />
</g>
<g id="#abd0e0ff">
<path fill="#abd0e0" opacity="1.00" d=" M 192.69 45.69 C 195.80 43.43 198.52 40.52 202.08 38.96 C 204.10 38.99 205.65 40.65 207.27 41.68 C 217.26 49.59 227.65 56.99 237.58 64.97 C 236.25 65.88 234.91 66.76 233.55 67.63 C 229.79 65.92 225.94 67.58 222.87 69.88 C 212.99 76.93 202.80 83.61 193.72 91.71 C 181.44 102.41 169.85 114.00 159.97 126.97 C 155.13 133.05 152.52 141.48 144.68 144.51 C 135.59 130.71 124.79 118.16 113.68 105.97 C 139.93 85.78 166.37 65.81 192.69 45.69 Z" />
</g>
<g id="#375b79ff">
<path fill="#375b79" opacity="1.00" d=" M 237.58 64.97 C 257.19 79.36 276.29 94.44 295.74 109.05 C 295.51 112.33 294.53 115.72 291.38 117.34 C 291.91 116.12 292.43 114.90 292.97 113.68 C 285.30 106.01 276.33 99.85 267.84 93.16 C 259.48 86.86 251.17 80.49 242.88 74.10 C 239.99 71.74 235.95 70.11 232.53 72.47 C 216.60 81.56 201.87 92.91 189.25 106.25 C 183.15 112.49 176.59 118.31 171.19 125.20 C 165.63 131.92 160.39 138.97 154.04 144.99 C 153.97 144.46 153.81 143.40 153.73 142.86 C 165.98 124.22 181.23 107.70 198.02 93.07 C 209.08 83.55 221.18 75.34 233.55 67.63 C 234.91 66.76 236.25 65.88 237.58 64.97 Z" />
</g>
<g id="#b9dce8ff">
<path fill="#b9dce8" opacity="1.00" d=" M 222.87 69.88 C 225.94 67.58 229.79 65.92 233.55 67.63 C 221.18 75.34 209.08 83.55 198.02 93.07 C 181.23 107.70 165.98 124.22 153.73 142.86 C 152.05 145.30 150.35 147.73 148.78 150.25 C 147.39 148.36 146.02 146.44 144.68 144.51 C 152.52 141.48 155.13 133.05 159.97 126.97 C 169.85 114.00 181.44 102.41 193.72 91.71 C 202.80 83.61 212.99 76.93 222.87 69.88 Z" />
</g>
<g id="#456884ff">
<path fill="#456884" opacity="1.00" d=" M 232.53 72.47 C 235.95 70.11 239.99 71.74 242.88 74.10 C 251.17 80.49 259.48 86.86 267.84 93.16 C 276.33 99.85 285.30 106.01 292.97 113.68 C 292.43 114.90 291.91 116.12 291.38 117.34 C 282.90 122.53 274.88 128.48 265.99 132.98 C 256.62 137.77 247.23 142.60 237.38 146.34 C 211.45 156.45 183.83 161.98 156.03 162.99 C 151.24 163.15 146.46 162.95 141.68 162.70 C 143.97 158.51 146.29 154.33 148.78 150.25 C 150.35 147.73 152.05 145.30 153.73 142.86 C 153.81 143.40 153.97 144.46 154.04 144.99 C 160.39 138.97 165.63 131.92 171.19 125.20 C 176.59 118.31 183.15 112.49 189.25 106.25 C 201.87 92.91 216.60 81.56 232.53 72.47 Z" />
</g>
<g id="#7895afff">
<path fill="#7895af" opacity="1.00" d=" M 63.35 144.22 C 80.11 131.45 96.81 118.59 113.68 105.97 C 124.79 118.16 135.59 130.71 144.68 144.51 C 146.02 146.44 147.39 148.36 148.78 150.25 C 146.29 154.33 143.97 158.51 141.68 162.70 C 140.74 164.44 139.85 166.21 138.98 167.99 C 135.19 168.28 131.40 168.44 127.61 168.61 C 119.69 187.31 111.78 206.02 104.01 224.78 C 108.21 224.96 112.42 225.13 116.63 225.34 C 112.73 228.05 107.08 229.39 103.35 225.62 C 99.83 222.62 101.72 217.78 103.16 214.23 C 108.15 202.81 112.54 191.14 117.87 179.87 C 120.71 173.73 124.67 168.21 128.90 162.97 C 113.87 160.10 98.36 159.19 83.79 154.22 C 79.51 152.96 77.68 148.37 73.99 146.28 C 70.78 146.62 67.82 149.05 67.40 152.34 C 65.98 160.52 68.05 168.77 68.01 176.98 C 68.01 204.32 67.96 231.66 68.00 259.00 C 68.12 269.58 66.46 280.12 67.25 290.70 C 78.44 291.75 89.60 290.05 100.76 289.47 C 104.88 289.15 108.75 290.78 112.51 292.21 C 112.52 292.64 112.53 293.49 112.54 293.92 L 112.52 294.58 C 96.12 294.49 79.73 294.58 63.34 294.66 C 63.40 244.51 63.33 194.36 63.35 144.22 Z" />
</g>
<g id="#255675ff">
<path fill="#255675" opacity="1.00" d=" M 295.74 109.05 C 296.31 109.39 296.90 109.73 297.49 110.07 L 297.47 110.66 C 297.39 112.35 297.31 114.04 297.23 115.73 C 309.36 124.96 321.58 134.07 333.72 143.28 C 337.86 146.14 337.27 151.60 337.26 156.00 C 336.55 175.97 337.56 195.97 336.26 215.92 C 336.09 231.61 336.21 247.32 336.17 263.01 C 336.09 270.36 337.56 277.67 337.05 285.02 C 336.80 286.71 336.62 289.17 334.54 289.59 C 329.13 290.88 323.50 290.09 318.00 290.18 C 281.67 290.08 245.33 290.15 209.00 290.14 C 201.36 290.18 193.72 290.25 186.09 289.92 C 185.70 279.17 186.00 268.35 184.09 257.71 C 183.22 249.14 181.78 240.65 180.48 232.14 C 181.02 227.79 184.36 224.94 187.90 222.86 C 187.90 223.37 187.90 224.39 187.90 224.90 C 192.76 225.08 197.62 225.00 202.48 224.92 C 203.75 221.24 205.09 217.60 206.32 213.91 C 213.68 213.81 221.05 213.88 228.41 214.00 C 229.76 217.66 230.46 221.92 233.19 224.82 C 238.08 225.13 243.05 225.27 247.90 224.53 C 249.34 223.47 250.73 222.36 252.13 221.25 C 258.36 225.25 264.79 229.45 272.26 230.59 C 281.86 232.06 292.37 231.14 300.59 225.56 C 303.32 223.80 305.02 220.80 305.51 217.62 C 306.27 212.85 306.48 207.93 305.77 203.14 C 305.53 201.26 303.53 200.50 302.30 199.35 C 301.59 206.75 302.33 214.23 301.30 221.62 C 300.82 211.56 301.16 201.49 300.99 191.43 C 300.25 191.44 298.76 191.45 298.02 191.46 C 297.21 189.45 296.40 187.45 295.60 185.45 C 298.64 181.98 302.69 178.74 303.59 173.98 C 302.78 169.33 297.95 166.80 294.04 164.97 C 283.39 160.29 270.92 161.70 260.64 166.64 C 253.91 169.86 248.16 175.49 245.67 182.61 C 244.08 187.35 243.55 192.35 242.51 197.23 C 236.24 188.45 234.81 177.22 228.53 168.47 C 225.99 164.71 221.01 164.75 216.97 164.75 C 212.76 164.74 207.87 165.52 205.52 169.47 C 197.90 181.53 194.91 195.81 188.05 208.27 C 185.86 197.27 187.57 186.03 187.04 174.93 C 186.93 172.04 185.91 169.32 184.88 166.65 C 184.44 167.10 183.55 168.00 183.11 168.45 C 178.41 168.50 173.71 168.53 169.02 168.66 C 169.00 175.85 169.01 183.03 168.93 190.22 C 168.73 188.86 168.48 187.52 168.19 186.18 C 167.40 182.66 165.33 179.67 163.32 176.76 C 160.34 172.47 158.30 167.66 156.03 162.99 C 183.83 161.98 211.45 156.45 237.38 146.34 C 247.23 142.60 256.62 137.77 265.99 132.98 C 274.88 128.48 282.90 122.53 291.38 117.34 C 294.53 115.72 295.51 112.33 295.74 109.05 Z" />
</g>
<g id="#154766ff">
<path fill="#154766" opacity="1.00" d=" M 297.23 115.73 C 297.31 114.04 297.39 112.35 297.47 110.66 C 299.46 111.92 301.38 113.29 303.24 114.74 C 316.07 124.64 329.04 134.36 341.88 144.25 C 341.49 194.37 341.43 244.50 341.93 294.62 C 289.94 294.48 237.95 294.50 185.96 294.59 C 185.66 293.25 185.37 291.92 185.11 290.59 C 183.21 279.74 184.13 268.66 184.09 257.71 C 186.00 268.35 185.70 279.17 186.09 289.92 C 193.72 290.25 201.36 290.18 209.00 290.14 C 245.33 290.15 281.67 290.08 318.00 290.18 C 323.50 290.09 329.13 290.88 334.54 289.59 C 336.62 289.17 336.80 286.71 337.05 285.02 C 337.56 277.67 336.09 270.36 336.17 263.01 C 336.21 247.32 336.09 231.61 336.26 215.92 C 337.56 195.97 336.55 175.97 337.26 156.00 C 337.27 151.60 337.86 146.14 333.72 143.28 C 321.58 134.07 309.36 124.96 297.23 115.73 Z" />
</g>
<g id="#7d9cb2ff">
<path fill="#7d9cb2" opacity="1.00" d=" M 67.40 152.34 C 67.82 149.05 70.78 146.62 73.99 146.28 C 77.68 148.37 79.51 152.96 83.79 154.22 C 98.36 159.19 113.87 160.10 128.90 162.97 C 124.67 168.21 120.71 173.73 117.87 179.87 C 112.54 191.14 108.15 202.81 103.16 214.23 C 101.72 217.78 99.83 222.62 103.35 225.62 C 107.08 229.39 112.73 228.05 116.63 225.34 C 117.21 225.23 118.37 225.02 118.95 224.92 C 118.07 227.26 117.39 229.67 116.82 232.10 C 112.51 251.79 111.88 272.12 112.51 292.21 C 108.75 290.78 104.88 289.15 100.76 289.47 C 89.60 290.05 78.44 291.75 67.25 290.70 C 66.46 280.12 68.12 269.58 68.00 259.00 C 67.96 231.66 68.01 204.32 68.01 176.98 C 68.05 168.77 65.98 160.52 67.40 152.34 Z" />
</g>
<g id="#1a4d6fff">
<path fill="#1a4d6f" opacity="1.00" d=" M 260.64 166.64 C 270.92 161.70 283.39 160.29 294.04 164.97 C 297.95 166.80 302.78 169.33 303.59 173.98 C 302.69 178.74 298.64 181.98 295.60 185.45 C 296.40 187.45 297.21 189.45 298.02 191.46 C 291.25 191.57 284.47 191.50 277.70 191.37 C 277.68 195.16 277.62 198.95 277.62 202.75 C 281.30 202.86 284.98 202.81 288.66 202.88 C 288.59 206.37 288.64 209.87 288.58 213.36 C 282.11 214.48 274.66 215.20 269.18 210.83 C 260.83 204.17 260.92 189.85 268.87 182.90 C 272.64 179.70 277.89 178.18 282.75 179.37 C 286.41 180.02 289.50 182.19 292.57 184.16 C 295.38 180.81 298.24 177.51 300.99 174.10 C 288.16 164.20 267.57 163.97 256.04 176.03 C 243.29 188.98 246.44 213.73 262.62 222.42 C 274.56 228.65 289.33 226.92 301.30 221.62 C 302.33 214.23 301.59 206.75 302.30 199.35 C 303.53 200.50 305.53 201.26 305.77 203.14 C 306.48 207.93 306.27 212.85 305.51 217.62 C 305.02 220.80 303.32 223.80 300.59 225.56 C 292.37 231.14 281.86 232.06 272.26 230.59 C 264.79 229.45 258.36 225.25 252.13 221.25 C 250.73 222.36 249.34 223.47 247.90 224.53 C 239.82 205.93 232.36 187.07 224.41 168.41 C 219.75 168.64 214.86 167.63 210.37 169.18 C 207.51 171.07 205.36 173.85 203.92 176.94 C 201.08 182.90 198.75 189.09 196.14 195.15 C 193.15 201.96 191.29 209.31 187.10 215.55 C 183.75 207.42 185.25 198.53 185.00 190.00 C 184.78 182.81 186.13 175.25 183.11 168.45 C 183.55 168.00 184.44 167.10 184.88 166.65 C 185.91 169.32 186.93 172.04 187.04 174.93 C 187.57 186.03 185.86 197.27 188.05 208.27 C 194.91 195.81 197.90 181.53 205.52 169.47 C 207.87 165.52 212.76 164.74 216.97 164.75 C 221.01 164.75 225.99 164.71 228.53 168.47 C 234.81 177.22 236.24 188.45 242.51 197.23 C 243.55 192.35 244.08 187.35 245.67 182.61 C 248.16 175.49 253.91 169.86 260.64 166.64 Z" />
</g>
<g id="#014966ff">
<path fill="#014966" opacity="1.00" d=" M 138.98 167.99 C 139.85 166.21 140.74 164.44 141.68 162.70 C 146.46 162.95 151.24 163.15 156.03 162.99 C 158.30 167.66 160.34 172.47 163.32 176.76 C 165.33 179.67 167.40 182.66 168.19 186.18 C 166.92 187.96 165.12 189.65 165.08 191.99 C 164.79 197.92 165.37 203.91 164.18 209.78 C 158.88 203.96 156.89 196.20 153.86 189.14 C 151.21 182.22 148.64 175.18 144.23 169.14 C 143.57 169.28 142.24 169.58 141.58 169.72 C 140.72 169.14 139.85 168.56 138.98 167.99 Z" />
</g>
<g id="#003d5dff">
<path fill="#003d5d" opacity="1.00" d=" M 141.58 169.72 C 142.24 169.58 143.57 169.28 144.23 169.14 C 148.64 175.18 151.21 182.22 153.86 189.14 C 156.89 196.20 158.88 203.96 164.18 209.78 C 165.37 203.91 164.79 197.92 165.08 191.99 C 165.12 189.65 166.92 187.96 168.19 186.18 C 168.48 187.52 168.73 188.86 168.93 190.22 C 169.11 201.78 168.87 213.35 169.10 224.91 C 172.76 225.01 176.42 225.01 180.09 225.04 L 180.08 226.06 C 175.77 229.32 170.48 227.91 166.52 224.87 C 161.39 226.67 155.92 229.17 150.40 227.60 C 145.29 226.20 143.26 219.97 137.98 218.94 C 134.48 218.34 130.62 217.78 127.24 219.19 C 123.33 223.11 121.46 228.77 116.82 232.10 C 117.39 229.67 118.07 227.26 118.95 224.92 C 120.39 221.28 121.76 217.61 123.05 213.91 C 130.30 213.83 137.55 214.01 144.81 213.93 C 146.15 217.65 147.60 221.32 149.16 224.95 C 154.27 225.03 159.37 225.04 164.48 224.94 C 156.92 206.50 149.24 188.12 141.58 169.72 Z" />
</g>
<g id="#124466ff">
<path fill="#124466" opacity="1.00" d=" M 183.11 168.45 C 186.13 175.25 184.78 182.81 185.00 190.00 C 185.25 198.53 183.75 207.42 187.10 215.55 C 191.29 209.31 193.15 201.96 196.14 195.15 C 198.75 189.09 201.08 182.90 203.92 176.94 C 205.36 173.85 207.51 171.07 210.37 169.18 C 208.32 175.31 205.53 181.15 203.13 187.15 C 197.94 199.00 193.39 211.14 187.90 222.86 C 184.36 224.94 181.02 227.79 180.48 232.14 C 180.27 230.12 180.13 228.09 180.08 226.06 L 180.09 225.04 C 180.79 225.04 182.19 225.03 182.89 225.03 C 183.17 206.17 182.71 187.30 183.11 168.45 Z" />
</g>
<g id="#003b5eff">
<path fill="#003b5e" opacity="1.00" d=" M 133.77 184.29 C 136.75 190.26 138.45 196.80 141.03 202.96 C 136.35 203.04 131.68 203.00 127.00 202.99 C 129.45 196.82 131.53 190.53 133.77 184.29 Z" />
</g>
<g id="#164b71ff">
<path fill="#164b71" opacity="1.00" d=" M 210.59 202.98 C 212.73 196.67 214.69 190.21 217.78 184.29 C 219.74 190.60 222.03 196.79 224.37 202.96 C 219.78 203.03 215.18 203.02 210.59 202.98 Z" />
</g>
<g id="#004967ff">
<path fill="#004967" opacity="1.00" d=" M 127.24 219.19 C 130.62 217.78 134.48 218.34 137.98 218.94 C 143.26 219.97 145.29 226.20 150.40 227.60 C 155.92 229.17 161.39 226.67 166.52 224.87 C 170.48 227.91 175.77 229.32 180.08 226.06 C 180.13 228.09 180.27 230.12 180.48 232.14 C 181.78 240.65 183.22 249.14 184.09 257.71 C 184.13 268.66 183.21 279.74 185.11 290.59 C 179.75 290.10 174.37 289.90 169.00 289.99 C 154.32 290.17 139.63 289.85 124.95 290.22 C 121.00 290.32 117.05 290.08 113.13 289.60 C 112.92 291.04 112.70 292.47 112.54 293.92 C 112.53 293.49 112.52 292.64 112.51 292.21 C 111.88 272.12 112.51 251.79 116.82 232.10 C 121.46 228.77 123.33 223.11 127.24 219.19 Z" />
</g>
<g id="#013c59ff">
<path fill="#013c59" opacity="1.00" d=" M 113.13 289.60 C 117.05 290.08 121.00 290.32 124.95 290.22 C 139.63 289.85 154.32 290.17 169.00 289.99 C 174.37 289.90 179.75 290.10 185.11 290.59 C 185.37 291.92 185.66 293.25 185.96 294.59 C 161.48 294.56 137.00 294.63 112.52 294.58 L 112.54 293.92 C 112.70 292.47 112.92 291.04 113.13 289.60 Z" />
</g>
</svg>
