<?xml version="1.0" encoding="UTF-8" ?>
<!DOCTYPE svg PUBLIC "-//W3C//DTD SVG 1.1//EN" "http://www.w3.org/Graphics/SVG/1.1/DTD/svg11.dtd">
<svg width="601pt" height="606pt" viewBox="0 0 601 606" version="1.1" xmlns="http://www.w3.org/2000/svg">
<g id="#ffffffff">
<path fill="#ffffff" opacity="1.00" d=" M 285.58 18.40 C 293.31 17.44 301.15 18.30 308.93 17.97 C 314.34 17.51 319.57 19.48 324.98 18.99 C 347.92 21.15 370.74 25.60 392.49 33.33 C 404.77 37.03 416.32 42.64 427.96 47.93 C 434.86 51.73 441.75 55.56 448.60 59.45 C 463.61 69.09 478.24 79.48 491.25 91.71 C 495.13 96.52 500.93 99.32 504.53 104.39 C 507.95 109.30 513.03 112.71 516.49 117.60 C 551.80 158.78 575.07 210.23 582.22 264.04 C 582.98 270.35 584.20 276.63 584.07 283.02 C 585.83 292.23 584.65 301.66 585.02 310.98 C 585.53 317.06 583.48 322.95 583.98 329.04 C 582.01 346.35 579.45 363.71 574.43 380.45 C 568.97 402.64 559.28 423.52 548.54 443.60 C 538.37 461.76 526.26 478.86 512.27 494.27 C 506.63 499.30 502.74 506.03 496.58 510.55 C 492.24 513.53 489.22 517.96 484.97 521.04 C 456.88 545.01 424.20 563.76 388.92 574.86 C 370.24 581.27 350.77 585.29 331.15 587.35 C 326.14 588.41 320.97 587.57 315.99 588.83 C 307.68 589.29 299.33 588.81 291.00 589.05 C 286.94 589.27 283.04 587.71 278.97 587.99 C 272.24 588.39 265.71 586.31 259.02 585.92 C 228.54 581.30 198.85 571.58 171.34 557.69 C 147.57 544.79 124.76 529.58 105.66 510.31 C 100.80 507.21 97.51 502.49 93.78 498.24 C 89.46 494.51 86.25 489.78 82.35 485.67 C 58.46 456.83 40.70 423.14 29.40 387.50 C 23.89 368.05 19.77 348.16 18.00 328.01 C 18.49 322.61 16.52 317.39 16.97 311.98 C 17.36 302.66 16.15 293.23 17.94 284.01 C 17.89 273.95 19.83 264.02 21.30 254.10 C 30.19 203.52 52.79 155.35 86.53 116.60 C 89.64 112.09 94.24 108.94 97.54 104.59 C 100.67 99.72 106.21 97.27 109.74 92.72 C 127.67 76.10 147.79 61.73 169.57 50.57 C 175.37 46.61 182.18 44.67 188.32 41.35 C 216.50 29.39 246.54 21.73 277.04 19.00 C 279.89 19.04 282.78 19.06 285.58 18.40 M 287.24 46.02 C 283.78 54.86 280.30 63.68 276.76 72.49 C 279.04 72.50 281.31 72.50 283.59 72.52 C 284.22 70.96 284.43 68.99 285.96 67.99 C 290.19 64.69 297.45 66.70 298.47 72.27 C 300.82 72.24 303.17 72.17 305.53 72.07 C 301.62 63.08 297.68 54.10 293.66 45.17 C 291.50 45.34 289.36 45.61 287.24 46.02 M 309.33 45.34 C 308.82 54.20 308.03 63.05 307.49 71.91 C 309.64 72.14 311.80 72.37 313.96 72.58 C 314.24 68.71 314.51 64.84 315.19 61.03 C 318.74 64.16 319.49 69.04 321.84 72.96 C 324.36 73.01 326.88 73.15 329.39 73.37 C 327.62 69.66 325.77 65.99 323.50 62.56 C 328.02 60.04 331.32 53.88 327.86 49.20 C 322.93 44.54 315.52 45.84 309.33 45.34 M 264.83 47.87 C 265.76 56.79 266.81 65.70 268.06 74.58 C 270.24 74.36 272.42 74.11 274.60 73.87 C 273.71 64.95 272.52 56.06 271.42 47.17 C 269.22 47.39 267.03 47.63 264.83 47.87 M 335.36 47.85 C 334.18 56.71 333.10 65.58 332.21 74.48 C 334.40 74.61 336.60 74.73 338.80 74.83 C 339.84 66.08 340.85 57.33 341.96 48.59 C 339.75 48.36 337.55 48.11 335.36 47.85 M 243.98 51.39 C 245.47 60.27 247.06 69.13 248.70 77.98 C 254.12 76.77 259.57 75.75 265.08 75.01 C 264.87 73.02 264.67 71.04 264.46 69.06 C 260.99 69.66 257.54 71.08 253.98 70.32 C 252.91 63.60 251.67 56.92 250.45 50.23 C 248.29 50.61 246.13 51.01 243.98 51.39 M 354.31 52.59 C 344.69 55.57 342.00 69.92 349.54 76.44 C 354.03 80.82 361.23 81.60 366.74 78.75 C 374.41 75.68 376.87 65.10 372.46 58.44 C 368.38 53.04 360.81 50.21 354.31 52.59 M 229.95 55.19 C 232.41 63.82 234.47 72.57 237.23 81.12 C 239.25 80.42 241.28 79.70 243.32 79.00 C 241.08 70.41 238.78 61.84 236.42 53.28 C 234.26 53.92 232.11 54.55 229.95 55.19 M 204.71 63.19 C 207.31 71.67 210.11 80.08 212.81 88.52 C 217.93 86.92 223.45 86.00 227.95 82.91 C 231.45 80.65 231.90 75.01 228.89 72.17 C 227.71 71.21 226.28 70.67 224.94 69.99 C 226.88 66.30 226.22 60.76 221.63 59.52 C 215.76 58.40 210.17 61.47 204.71 63.19 M 385.69 61.79 C 382.36 62.45 381.02 66.05 380.46 69.00 C 380.58 73.38 384.61 75.86 387.60 78.41 C 389.08 79.51 388.81 81.61 387.97 83.02 C 384.07 84.44 381.50 80.63 379.39 78.07 C 377.56 79.04 375.74 80.02 373.93 81.01 C 376.59 85.61 381.65 88.71 386.99 88.74 C 392.49 89.37 397.68 82.98 395.12 77.83 C 392.78 74.08 388.49 71.96 386.69 67.78 C 390.43 65.30 393.98 68.49 396.43 71.16 C 398.10 70.16 399.78 69.15 401.45 68.13 C 397.80 63.50 391.70 59.86 385.69 61.79 M 186.25 71.25 C 180.98 72.54 176.89 76.96 175.52 82.14 C 173.22 90.33 180.45 99.75 189.03 99.31 C 197.12 99.52 205.71 92.51 204.60 83.92 C 204.29 75.12 194.72 68.04 186.25 71.25 M 401.45 94.01 C 402.78 95.32 403.93 97.16 405.95 97.44 C 408.31 97.85 410.06 95.97 411.71 94.60 C 414.51 96.11 417.31 97.63 420.09 99.19 C 419.99 101.21 419.88 103.24 419.77 105.27 C 421.84 106.24 423.94 107.17 426.06 108.06 C 427.25 98.57 428.21 89.05 429.33 79.54 C 427.34 78.50 425.34 77.50 423.33 76.52 C 416.09 82.41 408.60 88.01 401.45 94.01 M 156.27 88.98 C 158.02 94.59 159.69 100.24 161.08 105.96 C 156.50 102.84 152.28 99.17 147.42 96.48 C 144.04 96.19 141.71 99.51 139.02 101.09 C 144.10 108.42 149.23 115.70 154.35 122.99 C 156.05 121.85 157.74 120.70 159.45 119.57 C 156.45 114.54 152.67 110.04 149.72 104.98 C 155.11 108.50 160.01 112.72 165.66 115.84 C 166.71 114.04 168.11 112.20 167.82 109.99 C 167.42 104.58 164.28 99.83 163.84 94.42 C 167.58 99.20 170.75 104.39 174.39 109.26 C 176.10 108.08 177.80 106.90 179.52 105.72 C 174.58 98.16 169.22 90.90 164.05 83.51 C 161.44 85.30 158.85 87.13 156.27 88.98 M 440.36 92.38 C 433.64 94.77 429.12 102.70 431.51 109.64 C 433.64 116.81 441.09 121.33 448.45 120.54 C 448.16 118.51 447.86 116.49 447.57 114.47 C 444.56 113.99 440.97 113.70 439.17 110.84 C 435.05 105.21 441.80 96.48 448.28 98.58 C 451.73 99.31 452.42 103.43 455.04 105.28 C 456.62 105.35 458.09 104.59 459.59 104.17 C 458.83 95.16 448.56 89.67 440.36 92.38 M 449.31 123.44 C 447.06 126.05 451.13 127.95 452.89 129.29 C 455.35 126.32 457.82 123.35 460.65 120.73 C 461.30 125.32 459.35 129.62 458.80 134.10 C 460.36 136.28 462.73 137.66 464.83 139.27 C 465.39 135.25 465.99 131.24 466.50 127.22 C 471.75 127.61 478.26 124.20 477.61 118.19 C 475.95 111.84 469.65 108.54 465.01 104.55 C 459.81 110.88 454.38 117.02 449.31 123.44 M 127.54 111.36 C 131.50 115.37 135.35 119.49 139.18 123.63 C 132.66 121.89 126.21 119.85 119.60 118.44 C 117.81 120.12 116.04 121.83 114.32 123.58 C 120.52 130.02 126.67 136.52 132.84 143.00 C 134.35 141.52 135.87 140.03 137.39 138.56 C 133.73 134.33 129.75 130.40 125.95 126.31 C 132.36 127.87 138.71 129.66 145.04 131.50 C 146.90 129.83 148.76 128.14 150.58 126.43 C 144.42 119.86 138.47 113.09 132.09 106.73 C 130.56 108.26 129.04 109.79 127.54 111.36 M 300.42 119.45 C 282.47 132.40 264.93 145.93 247.36 159.40 C 232.57 170.60 217.77 181.79 203.12 193.17 C 200.90 194.92 198.61 196.56 196.26 198.12 L 196.46 198.29 C 177.39 212.84 158.07 227.05 139.43 242.14 C 139.22 242.28 138.78 242.54 138.56 242.68 C 138.63 300.93 138.71 359.20 138.70 417.46 C 156.79 417.74 174.90 417.39 192.99 417.63 C 199.31 418.22 205.65 417.87 211.98 417.98 C 234.85 417.92 257.72 418.06 280.59 417.90 C 283.04 417.76 285.50 417.72 287.95 417.74 C 346.58 417.82 405.20 417.63 463.83 417.83 C 463.64 359.36 463.81 300.88 463.74 242.41 C 447.10 229.95 430.71 217.15 414.14 204.60 C 390.36 186.16 366.20 168.25 342.28 150.01 C 329.49 139.97 316.53 130.16 303.52 120.43 C 302.56 120.05 301.44 118.51 300.42 119.45 M 467.25 141.27 C 470.33 147.16 475.30 151.76 480.80 155.37 C 481.67 153.92 482.55 152.47 483.43 151.02 C 480.69 148.21 477.98 145.39 475.24 142.60 C 476.45 141.38 477.68 140.17 478.92 138.96 C 481.59 141.50 484.12 144.18 486.54 146.96 C 487.83 145.62 489.12 144.28 490.43 142.95 C 488.24 140.65 485.62 138.68 483.98 135.93 C 483.03 134.00 485.12 132.97 486.29 131.92 C 488.90 134.78 491.67 137.49 494.43 140.21 C 495.83 138.91 497.22 137.60 498.61 136.29 C 494.37 131.96 490.16 127.60 485.94 123.26 C 479.51 129.05 473.36 135.14 467.25 141.27 M 108.43 129.51 C 107.07 131.32 105.70 133.13 104.36 134.95 C 111.13 140.67 117.63 146.72 124.75 152.00 C 125.97 150.52 128.44 149.09 128.58 147.26 C 122.29 140.92 115.25 135.30 108.43 129.51 M 482.02 158.59 C 485.86 163.72 488.84 170.36 495.24 172.74 C 503.40 176.37 514.13 169.00 513.29 160.02 C 512.57 153.28 507.51 148.29 503.82 143.00 C 496.46 148.07 489.28 153.39 482.02 158.59 M 86.51 158.38 C 85.31 162.66 88.20 168.09 92.92 168.29 C 97.35 168.56 100.65 165.17 104.43 163.47 C 105.74 162.48 106.53 164.21 107.12 165.09 C 107.42 168.79 103.60 170.57 100.83 171.96 C 101.11 173.85 101.40 175.73 101.69 177.62 C 107.55 176.13 112.68 171.13 113.13 164.93 C 113.58 160.06 108.45 154.88 103.53 156.67 C 99.80 158.11 96.82 160.98 93.06 162.41 C 92.75 160.85 91.30 159.02 92.63 157.56 C 94.32 155.82 96.52 154.67 98.19 152.91 C 99.31 151.07 97.53 149.47 96.77 147.93 C 92.03 149.68 87.57 153.20 86.51 158.38 M 70.63 183.76 C 78.33 188.27 86.05 192.77 93.77 197.24 C 97.07 191.81 100.38 186.36 102.93 180.53 C 101.34 179.79 99.75 179.03 98.17 178.28 C 96.04 181.67 94.45 185.47 91.82 188.51 C 90.26 188.64 87.39 187.14 88.16 185.07 C 89.27 181.99 91.50 179.47 93.02 176.59 C 91.46 175.68 89.92 174.77 88.36 173.87 C 86.49 177.20 84.49 180.44 82.33 183.58 C 81.11 182.70 79.90 181.82 78.69 180.93 C 80.67 177.62 82.69 174.32 84.44 170.87 C 82.85 169.98 81.25 169.09 79.66 168.20 C 76.50 173.30 73.48 178.48 70.63 183.76 M 498.52 182.37 C 499.61 184.43 500.75 186.46 501.90 188.49 C 509.33 184.21 516.68 179.80 524.17 175.62 C 523.32 173.48 522.45 171.35 521.56 169.23 C 513.98 173.78 506.32 178.21 498.52 182.37 M 522.17 180.50 C 523.31 182.75 524.46 185.01 525.62 187.25 C 519.49 190.65 513.30 193.92 507.04 197.07 C 507.85 199.25 508.98 201.31 510.73 202.89 C 516.69 199.68 522.67 196.50 528.61 193.24 C 529.91 195.40 531.20 197.56 532.52 199.71 C 533.90 199.07 535.28 198.45 536.67 197.83 C 535.43 190.45 530.26 184.74 527.45 178.00 C 525.68 178.83 523.91 179.65 522.17 180.50 M 59.13 208.32 C 60.83 209.04 62.54 209.73 64.26 210.41 C 65.34 208.22 66.39 206.01 67.42 203.80 C 73.90 206.69 80.27 209.83 86.83 212.51 C 87.62 210.46 88.36 208.39 89.03 206.29 C 82.92 203.47 76.80 200.65 70.69 197.80 C 72.21 194.35 73.70 189.23 68.68 188.02 C 65.22 194.65 61.97 201.40 59.13 208.32 M 512.37 207.45 C 513.19 209.64 514.04 211.83 514.90 214.01 C 516.82 214.12 518.74 214.23 520.68 214.31 C 521.88 217.31 523.13 220.29 524.43 223.25 C 523.11 224.60 521.78 225.93 520.43 227.25 C 521.06 229.69 521.59 232.34 523.78 233.93 C 530.20 227.02 536.99 220.48 543.80 213.96 C 543.12 212.11 542.44 210.28 541.74 208.45 C 531.97 207.58 522.16 207.89 512.37 207.45 M 55.32 219.43 C 60.64 221.14 65.97 222.83 71.25 224.67 C 64.82 226.71 58.12 227.66 51.69 229.67 C 50.91 231.92 50.16 234.18 49.43 236.46 C 57.87 239.56 66.40 242.43 74.95 245.24 C 75.44 243.02 75.93 240.80 76.43 238.59 C 71.92 237.07 66.70 237.12 63.05 233.65 C 67.96 230.24 74.72 232.08 79.59 228.51 C 81.89 227.21 82.33 224.46 83.01 222.15 C 74.59 218.94 66.01 216.16 57.49 213.23 C 56.76 215.29 56.04 217.36 55.32 219.43 M 523.76 235.78 C 525.23 242.19 525.61 249.55 530.55 254.45 C 536.99 261.30 550.76 257.37 552.30 247.99 C 553.44 241.87 551.04 235.90 549.80 230.00 C 541.15 232.06 532.46 233.92 523.76 235.78 M 44.01 262.55 C 52.82 264.35 61.64 266.12 70.49 267.77 C 71.78 261.62 72.87 255.43 74.00 249.25 C 72.13 248.91 70.27 248.57 68.42 248.22 C 67.61 252.20 66.87 256.19 66.13 260.18 C 64.39 260.00 62.65 259.82 60.92 259.63 C 61.29 255.51 63.04 251.53 62.31 247.35 C 60.59 247.67 58.05 247.34 57.37 249.44 C 56.33 252.49 56.10 255.74 55.24 258.84 C 53.68 258.27 51.04 258.25 51.00 256.01 C 51.31 252.54 52.68 249.27 53.25 245.84 C 51.43 245.47 49.61 245.10 47.79 244.75 C 46.23 250.61 45.20 256.60 44.01 262.55 M 542.50 261.57 C 539.83 262.19 537.10 263.15 535.12 265.12 C 529.35 270.75 529.56 281.09 535.19 286.74 C 540.48 292.01 549.55 291.98 555.07 287.09 C 561.56 280.82 560.49 268.99 553.32 263.68 C 550.20 261.54 546.18 260.89 542.50 261.57 M 45.34 292.65 C 50.61 297.82 60.34 297.90 65.28 292.22 C 70.06 286.85 70.82 278.75 68.07 272.24 C 63.31 271.93 58.55 271.58 53.79 271.25 C 53.45 274.88 53.13 278.52 52.85 282.15 C 54.60 282.37 56.35 282.60 58.10 282.82 C 58.27 281.11 58.44 279.42 58.62 277.72 C 60.10 277.87 61.58 278.02 63.06 278.17 C 64.11 281.26 63.90 284.97 61.21 287.20 C 57.77 291.03 50.86 289.96 48.26 285.70 C 46.26 281.82 47.97 277.42 49.83 273.85 C 48.18 272.70 46.52 271.56 44.86 270.42 C 40.02 276.82 39.82 286.60 45.34 292.65 M 535.11 294.27 C 532.82 299.29 531.41 305.54 534.46 310.56 C 536.79 314.57 543.15 316.09 546.46 312.44 C 549.53 309.44 549.85 304.91 551.80 301.28 C 557.10 301.60 555.16 307.45 553.98 310.67 C 555.45 311.81 556.91 312.95 558.39 314.10 C 561.34 309.35 562.17 302.84 558.91 298.05 C 556.64 294.51 551.39 293.76 547.97 295.98 C 544.48 299.08 544.68 304.38 541.76 307.87 C 540.08 307.88 538.27 306.88 538.12 305.05 C 538.06 302.19 539.50 299.61 540.55 297.04 C 538.72 296.12 536.91 295.20 535.11 294.27 M 41.06 309.21 C 41.02 311.19 40.99 313.18 40.96 315.17 C 49.86 319.37 59.04 322.97 68.31 326.28 C 68.25 324.26 68.57 322.15 67.82 320.23 C 66.95 318.32 64.64 317.98 63.09 316.82 C 62.25 313.86 62.43 310.76 62.36 307.73 C 64.11 306.76 65.86 305.80 67.61 304.83 C 67.57 302.41 67.56 299.99 67.56 297.58 C 58.62 301.21 49.86 305.26 41.06 309.21 M 538.41 367.65 C 530.40 369.33 526.98 380.46 532.73 386.30 C 537.94 392.82 549.93 389.94 551.95 381.96 C 554.70 374.14 546.45 365.15 538.41 367.65 M 56.35 368.45 C 50.18 371.36 48.13 380.27 52.41 385.59 C 55.54 390.01 61.92 391.08 66.61 388.60 C 73.03 386.01 74.61 376.80 70.27 371.71 C 67.12 367.49 61.04 366.14 56.35 368.45 M 65.98 419.42 C 68.82 425.33 71.78 431.90 77.78 435.21 C 85.38 439.26 95.91 433.68 96.82 425.12 C 97.14 417.97 92.36 412.18 89.11 406.25 C 81.33 410.53 73.67 415.01 65.98 419.42 M 525.40 423.38 C 523.11 424.34 522.25 427.39 523.48 429.49 C 524.67 431.95 528.55 432.16 530.24 430.12 C 532.70 427.18 529.09 421.49 525.40 423.38 M 504.40 424.58 C 495.65 427.16 490.95 438.56 495.44 446.52 C 498.42 450.75 503.46 454.27 508.88 453.42 C 516.63 453.00 523.12 445.65 522.71 437.93 C 522.79 429.01 512.82 421.92 504.40 424.58 M 80.42 445.38 C 83.95 450.10 87.30 454.97 90.49 459.93 C 92.48 459.68 94.27 458.77 96.00 457.79 C 93.80 454.06 91.10 450.65 89.14 446.78 C 90.52 445.92 91.90 445.06 93.28 444.21 C 95.35 447.10 97.35 450.03 99.29 453.02 C 100.90 452.16 102.50 451.29 104.11 450.43 C 101.89 446.92 98.81 443.79 98.12 439.53 C 99.65 439.51 101.49 438.91 102.74 440.14 C 104.94 442.34 106.13 445.32 107.93 447.83 C 109.55 446.74 111.18 445.66 112.81 444.59 C 109.58 439.62 106.06 434.86 102.68 430.00 C 95.08 434.86 87.71 440.07 80.42 445.38 M 490.31 442.01 C 485.82 447.71 481.28 453.37 476.82 459.09 C 478.28 460.29 479.76 461.47 481.26 462.63 C 482.88 460.71 484.46 458.76 486.00 456.79 C 491.40 461.09 496.85 465.34 502.34 469.52 C 503.83 467.87 505.30 466.22 506.79 464.58 C 501.26 460.10 495.46 455.97 490.14 451.23 C 491.59 449.43 493.06 447.66 494.54 445.89 C 493.12 444.59 491.71 443.31 490.31 442.01 M 93.75 463.42 C 97.05 467.91 100.53 472.26 103.84 476.74 C 105.49 475.71 107.14 474.71 108.77 473.67 C 106.67 470.86 104.57 468.05 102.50 465.22 C 107.94 460.86 113.50 456.65 118.88 452.22 C 117.50 450.49 116.14 448.76 114.80 447.02 C 107.77 452.47 100.81 458.01 93.75 463.42 M 468.31 467.66 C 472.09 476.60 476.19 485.39 480.09 494.28 C 481.69 492.54 483.72 491.05 484.70 488.85 C 484.51 487.15 483.50 485.67 483.09 484.04 C 484.37 480.99 487.51 479.26 489.60 476.81 C 491.40 477.33 493.20 477.89 494.99 478.46 C 496.65 476.82 498.30 475.18 499.97 473.54 C 490.78 469.98 481.68 466.12 472.24 463.27 C 470.95 464.75 469.64 466.21 468.31 467.66 M 130.37 465.82 C 124.37 472.45 116.83 477.82 112.39 485.76 C 116.40 489.76 120.35 493.84 124.63 497.57 C 126.03 496.73 127.43 495.89 128.83 495.06 C 127.12 491.04 123.44 488.57 120.24 485.83 C 121.17 484.43 121.78 482.27 123.80 482.21 C 127.16 483.62 128.78 487.43 132.17 488.80 C 133.85 488.67 134.82 487.18 135.54 485.85 C 133.95 482.78 130.54 481.19 128.69 478.30 C 126.63 476.58 130.11 474.22 131.79 475.24 C 134.89 477.00 136.74 480.27 139.32 482.65 C 140.70 481.26 142.05 479.83 143.42 478.43 C 139.20 474.09 134.82 469.92 130.37 465.82 M 456.48 478.98 C 460.31 483.68 464.62 488.00 468.27 492.85 C 470.51 496.67 464.80 501.81 461.27 498.83 C 456.68 494.83 453.27 489.70 448.89 485.48 C 447.30 486.98 445.70 488.49 444.11 490.00 C 448.76 494.97 452.78 500.60 458.05 504.96 C 466.51 510.12 478.65 499.53 474.43 490.46 C 470.80 484.82 466.21 479.82 461.51 475.06 C 459.53 475.89 458.13 477.66 456.48 478.98 M 138.40 492.67 C 140.08 495.81 142.13 498.79 142.86 502.35 C 142.14 502.55 140.71 502.97 139.99 503.18 C 136.54 502.77 135.51 498.90 134.15 496.30 C 132.19 496.60 130.24 496.91 128.29 497.23 C 129.58 501.28 131.82 505.29 135.57 507.52 C 138.87 509.29 143.30 509.76 146.48 507.49 C 149.66 504.75 150.20 499.71 147.70 496.34 C 146.55 493.89 143.40 491.69 144.90 488.75 C 148.58 487.32 150.90 491.01 152.11 493.87 C 157.12 492.27 158.09 499.03 161.97 500.71 C 158.09 506.65 153.30 511.95 149.79 518.13 C 151.64 519.34 153.63 520.33 155.77 520.92 C 159.73 515.46 163.25 509.64 167.96 504.77 C 169.84 506.10 171.70 507.44 173.57 508.79 C 174.72 507.29 175.88 505.79 177.04 504.31 C 170.39 500.51 165.61 493.37 157.60 492.20 C 155.93 487.46 152.12 483.29 146.93 482.64 C 141.65 481.41 135.69 487.57 138.40 492.67 M 436.86 495.20 C 440.36 501.43 445.64 506.48 448.65 513.01 C 446.08 513.92 443.20 514.37 441.09 516.21 C 439.80 518.60 442.43 521.34 444.93 520.77 C 450.62 520.92 456.79 515.35 454.46 509.42 C 451.16 502.84 446.19 497.31 442.01 491.30 C 440.29 492.60 438.57 493.90 436.86 495.20 M 415.20 508.89 C 416.80 518.51 417.96 528.20 419.56 537.83 C 421.41 536.65 423.80 535.77 424.71 533.60 C 425.36 531.84 425.06 529.92 425.11 528.11 C 427.61 526.35 430.21 524.75 432.92 523.33 C 434.54 524.20 436.09 525.38 437.96 525.68 C 440.23 525.89 442.05 524.24 443.87 523.16 C 436.87 516.38 428.41 511.43 420.74 505.48 C 418.90 506.62 417.06 507.77 415.20 508.89 M 182.29 507.02 C 174.65 512.84 166.26 517.74 159.37 524.50 C 161.31 525.54 163.25 526.62 165.18 527.71 C 166.76 526.62 168.36 525.55 169.96 524.50 C 172.38 526.00 174.81 527.51 177.23 529.01 C 177.30 531.11 177.38 533.21 177.48 535.31 C 179.52 536.46 181.54 537.67 183.55 538.90 C 184.98 529.30 186.46 519.71 187.78 510.09 C 185.95 509.06 184.13 508.03 182.29 507.02 M 400.28 516.21 C 402.64 521.49 405.07 526.74 407.54 531.97 C 402.55 528.79 397.68 525.45 392.76 522.18 C 389.80 519.79 386.61 523.10 383.91 524.30 C 387.70 532.28 391.60 540.22 394.95 548.40 C 396.97 547.58 399.01 546.78 401.04 545.97 C 398.98 540.60 396.20 535.56 393.94 530.28 C 399.62 533.94 405.21 537.73 410.94 541.33 C 413.11 540.30 415.29 539.27 417.47 538.25 C 413.82 530.17 410.01 522.16 406.41 514.06 C 404.36 514.77 402.32 515.50 400.28 516.21 M 196.60 515.01 C 193.09 523.14 188.89 530.96 185.71 539.23 C 192.20 542.17 199.20 546.84 206.62 544.52 C 210.38 543.62 212.65 540.22 213.77 536.75 C 214.00 540.84 213.82 545.23 216.03 548.87 C 219.62 555.99 229.65 558.32 236.30 554.22 C 243.78 550.32 246.05 539.04 240.29 532.77 C 236.51 528.67 230.50 526.91 225.06 527.69 C 220.64 528.36 217.05 531.70 215.56 535.83 C 216.32 532.26 215.90 528.37 213.71 525.38 C 209.73 519.71 203.07 516.81 196.60 515.01 M 367.73 529.43 C 367.21 539.12 366.65 548.81 366.35 558.51 C 368.50 557.71 370.65 556.91 372.80 556.10 C 372.76 554.10 372.45 551.63 374.36 550.35 C 376.78 548.76 379.74 548.30 382.42 547.31 C 383.73 548.55 385.05 549.79 386.37 551.04 C 388.72 550.34 391.06 549.59 393.39 548.82 C 386.95 541.53 380.23 534.49 373.73 527.25 C 371.72 527.96 369.73 528.69 367.73 529.43 M 352.03 532.72 C 352.99 539.21 355.53 545.39 356.16 551.93 C 354.79 555.36 348.79 556.86 347.18 552.91 C 344.99 547.22 344.09 541.13 342.35 535.30 C 340.19 535.81 338.03 536.33 335.88 536.89 C 337.58 542.94 338.69 549.17 340.70 555.13 C 342.35 560.08 348.25 562.11 353.02 561.20 C 357.81 560.31 363.13 556.34 362.63 550.97 C 362.39 544.28 359.64 538.05 358.37 531.54 C 356.25 531.94 354.14 532.34 352.03 532.72 M 255.66 535.27 C 254.42 544.06 253.27 552.87 252.57 561.74 C 258.86 562.29 265.54 564.13 271.63 561.57 C 279.26 558.20 281.48 547.09 276.07 540.89 C 270.50 535.99 262.66 535.85 255.66 535.27 M 316.13 540.22 C 308.87 545.93 310.06 558.62 317.99 563.17 C 324.04 566.57 331.29 564.84 337.33 562.34 C 337.09 557.54 336.77 552.76 336.65 547.96 C 332.70 548.04 328.75 548.32 324.82 548.84 C 325.16 550.15 324.38 552.31 325.95 553.04 C 327.68 553.96 329.59 554.52 331.45 555.17 C 330.91 556.55 330.37 557.93 329.85 559.32 C 326.95 559.53 323.69 559.61 321.37 557.57 C 317.06 554.34 317.31 546.71 321.90 543.87 C 325.12 542.09 328.97 542.62 332.21 544.04 C 333.37 542.46 334.51 540.86 335.62 539.25 C 329.58 536.20 321.53 535.51 316.13 540.22 M 281.50 564.91 C 287.74 566.00 294.09 565.77 300.40 565.73 C 300.40 563.90 300.40 562.07 300.40 560.25 C 296.30 559.87 292.20 559.62 288.09 559.52 C 288.17 557.86 288.25 556.19 288.34 554.55 C 292.07 554.76 295.82 554.82 299.55 554.53 C 299.53 552.77 299.52 551.02 299.51 549.28 C 296.38 549.15 293.21 549.75 290.13 549.14 C 287.82 548.74 288.44 546.14 288.40 544.50 C 292.27 544.46 296.14 544.51 300.01 544.72 C 300.31 542.87 300.58 541.02 300.82 539.18 C 294.74 538.67 288.63 538.72 282.53 538.48 C 282.15 547.29 281.75 556.09 281.50 564.91 Z" />
<path fill="#ffffff" opacity="1.00" d=" M 316.02 51.02 C 318.37 50.83 322.18 51.01 322.48 54.08 C 323.72 57.32 319.30 57.97 317.14 57.13 C 314.30 56.61 313.98 52.60 316.02 51.02 Z" />
<path fill="#ffffff" opacity="1.00" d=" M 287.81 61.74 C 288.54 59.00 289.44 56.30 290.77 53.79 C 292.20 56.27 293.05 59.01 293.79 61.76 C 291.79 61.76 289.80 61.75 287.81 61.74 Z" />
<path fill="#ffffff" opacity="1.00" d=" M 357.35 58.46 C 361.14 56.89 365.69 59.35 366.99 63.12 C 369.38 68.75 363.33 76.30 357.27 73.82 C 350.69 71.44 350.74 60.78 357.35 58.46 Z" />
<path fill="#ffffff" opacity="1.00" d=" M 214.39 65.38 C 216.92 63.66 219.96 65.54 221.00 68.05 C 218.62 69.79 215.78 70.51 212.85 70.34 C 212.88 68.61 212.39 66.25 214.39 65.38 Z" />
<path fill="#ffffff" opacity="1.00" d=" M 215.55 76.15 C 217.98 75.69 220.43 74.42 222.93 74.80 C 226.24 78.31 220.69 81.07 217.77 81.79 C 216.92 79.95 216.19 78.07 215.55 76.15 Z" />
<path fill="#ffffff" opacity="1.00" d=" M 187.20 77.20 C 193.60 74.72 199.85 83.18 196.96 88.94 C 195.71 91.04 193.65 92.99 191.05 93.01 C 185.73 93.64 181.44 87.86 182.19 82.88 C 182.60 80.19 184.86 78.29 187.20 77.20 Z" />
<path fill="#ffffff" opacity="1.00" d=" M 415.77 90.84 C 417.99 88.76 420.29 86.76 422.64 84.82 C 422.23 87.67 422.00 90.56 421.15 93.33 C 419.30 92.62 417.53 91.72 415.77 90.84 Z" />
<path fill="#ffffff" opacity="1.00" d=" M 463.02 118.30 C 463.90 116.53 464.84 114.79 465.88 113.11 C 468.65 114.15 472.53 117.05 470.38 120.37 C 467.82 122.01 465.11 119.64 463.02 118.30 Z" />
<path fill="#ffffff" opacity="1.00" d=" M 490.65 160.50 C 494.61 157.64 498.47 154.63 502.66 152.11 C 504.36 153.71 506.39 155.37 506.65 157.87 C 508.06 163.17 502.15 168.65 497.00 166.81 C 493.96 165.87 492.11 163.13 490.65 160.50 Z" />
<path fill="#ffffff" opacity="1.00" d=" M 526.30 213.76 C 529.31 213.74 532.31 213.74 535.32 213.83 C 533.18 215.85 530.92 217.73 528.62 219.55 C 527.82 217.63 527.05 215.69 526.30 213.76 Z" />
<path fill="#ffffff" opacity="1.00" d=" M 530.74 241.19 C 535.62 239.55 540.74 238.88 545.68 237.48 C 547.00 240.68 547.49 244.52 545.55 247.58 C 543.69 250.84 539.36 251.30 536.04 250.61 C 532.50 248.91 531.48 244.70 530.74 241.19 Z" />
<path fill="#ffffff" opacity="1.00" d=" M 543.40 268.44 C 548.67 267.10 554.41 272.60 553.10 277.94 C 552.28 281.20 549.04 283.28 545.91 283.90 C 541.22 284.12 536.70 279.75 537.02 275.02 C 537.37 271.69 540.42 269.39 543.40 268.44 Z" />
<path fill="#ffffff" opacity="1.00" d=" M 368.24 275.27 C 382.41 265.95 402.90 266.51 415.86 277.81 C 412.59 281.70 408.93 285.23 405.54 289.02 C 397.10 280.18 380.31 281.31 374.41 292.47 C 369.63 300.81 370.92 312.45 377.82 319.23 C 384.11 325.06 393.61 324.64 401.35 322.47 C 401.46 318.47 401.46 314.47 401.34 310.47 C 397.12 310.52 392.89 310.50 388.67 310.48 C 388.78 306.15 388.78 301.81 388.69 297.48 C 397.79 297.53 406.90 297.49 416.00 297.50 C 415.91 309.14 416.17 320.79 415.86 332.42 C 406.73 337.17 396.24 339.19 386.01 337.96 C 376.47 336.98 366.97 332.51 361.18 324.68 C 350.04 309.90 352.85 286.07 368.24 275.27 Z" />
<path fill="#ffffff" opacity="1.00" d=" M 213.63 270.49 C 218.42 270.28 223.21 270.26 228.00 270.13 C 231.45 274.14 232.69 279.42 234.81 284.15 C 242.15 301.64 249.45 319.14 256.50 336.75 C 250.73 336.74 244.96 336.76 239.19 336.74 C 236.84 332.66 235.28 328.22 233.73 323.80 C 225.25 323.69 216.78 323.76 208.30 323.76 C 206.74 328.08 204.87 332.29 203.45 336.66 C 197.58 336.92 191.70 336.99 185.83 336.94 C 194.81 314.67 204.15 292.55 213.63 270.49 M 220.63 289.41 C 218.32 296.51 215.50 303.44 213.07 310.50 C 218.37 310.50 223.67 310.50 228.96 310.51 C 226.56 303.23 223.82 296.09 221.16 288.91 L 220.63 289.41 Z" />
<path fill="#ffffff" opacity="1.00" d=" M 262.00 270.50 C 267.33 270.50 272.67 270.50 278.00 270.50 C 278.10 292.61 277.86 314.71 277.82 336.82 C 273.53 336.40 269.22 336.19 264.91 336.25 C 264.61 336.64 264.01 337.41 263.71 337.80 C 262.87 336.70 261.95 335.53 262.11 334.06 C 262.00 321.74 262.11 309.41 261.92 297.09 C 262.02 288.23 262.00 279.37 262.00 270.50 Z" />
<path fill="#ffffff" opacity="1.00" d=" M 283.37 336.75 C 292.56 314.69 301.64 292.59 310.73 270.49 C 316.04 270.50 321.35 270.51 326.67 270.48 C 335.57 292.67 344.77 314.75 354.06 336.78 C 347.83 336.70 341.48 337.53 335.40 335.76 C 334.06 331.70 332.49 327.73 330.97 323.75 C 322.53 323.73 314.08 323.79 305.64 323.71 C 303.84 328.13 302.88 332.97 299.85 336.79 C 294.36 336.72 288.86 336.76 283.37 336.75 M 310.24 310.50 C 315.62 310.50 321.00 310.50 326.38 310.50 C 323.71 303.27 321.27 295.96 318.32 288.84 C 315.65 296.07 313.13 303.35 310.24 310.50 Z" />
<path fill="#ffffff" opacity="1.00" d=" M 48.90 312.40 C 51.64 311.22 54.45 310.22 57.28 309.25 C 57.24 311.26 57.20 313.27 57.16 315.28 C 54.36 314.44 51.60 313.48 48.90 312.40 Z" />
<path fill="#ffffff" opacity="1.00" d=" M 73.96 422.51 C 78.29 420.25 82.36 417.46 86.88 415.59 C 92.87 418.70 90.77 429.24 84.00 429.63 C 79.20 430.58 76.01 426.15 73.96 422.51 Z" />
<path fill="#ffffff" opacity="1.00" d=" M 505.21 431.17 C 510.90 428.98 517.27 435.26 515.98 440.98 C 515.18 443.69 512.99 446.26 510.07 446.63 C 505.41 447.54 500.94 443.54 500.17 439.10 C 499.65 435.65 502.40 432.69 505.21 431.17 Z" />
<path fill="#ffffff" opacity="1.00" d=" M 476.86 471.01 C 479.35 471.64 482.33 472.24 483.46 474.91 C 483.14 476.54 481.84 478.08 480.12 478.28 C 477.29 477.13 477.34 473.54 476.86 471.01 Z" />
<path fill="#ffffff" opacity="1.00" d=" M 421.91 513.80 C 424.26 515.55 426.56 517.37 428.84 519.21 C 427.19 520.41 425.54 521.61 423.88 522.80 C 423.07 519.83 422.39 516.83 421.91 513.80 Z" />
<path fill="#ffffff" opacity="1.00" d=" M 194.04 536.96 C 195.67 532.24 197.95 527.79 200.03 523.26 C 202.69 523.71 205.53 524.48 207.11 526.88 C 210.94 531.27 206.82 539.52 200.98 538.96 C 198.54 538.80 196.28 537.82 194.04 536.96 Z" />
<path fill="#ffffff" opacity="1.00" d=" M 226.29 534.24 C 231.72 531.24 237.06 537.73 236.14 542.98 C 236.06 548.76 227.84 552.77 223.71 548.27 C 219.55 544.22 220.65 536.37 226.29 534.24 Z" />
<path fill="#ffffff" opacity="1.00" d=" M 373.28 536.90 C 376.14 538.03 377.93 540.46 378.17 543.54 C 376.48 543.70 374.80 543.88 373.12 544.06 C 373.14 541.67 373.17 539.28 373.28 536.90 Z" />
<path fill="#ffffff" opacity="1.00" d=" M 259.57 557.12 C 260.03 551.79 260.66 546.47 261.52 541.19 C 264.97 542.05 269.21 542.50 271.32 545.78 C 272.64 548.69 272.57 552.72 269.98 554.95 C 267.22 557.62 263.09 557.30 259.57 557.12 Z" />
</g>
<g id="#7c9bb1ff">
<path fill="#7c9bb1" opacity="1.00" d=" M 276.02 16.02 C 280.06 16.21 284.05 15.75 288.02 15.06 C 295.35 14.84 302.69 15.13 310.03 14.96 C 315.07 14.69 319.94 16.49 325.00 16.00 C 356.47 18.86 387.65 26.37 416.51 39.40 C 428.97 45.37 441.50 51.34 453.07 58.94 C 468.19 68.03 481.81 79.35 495.10 90.86 C 506.87 101.50 517.20 113.56 527.14 125.89 C 540.62 143.73 552.84 162.66 561.86 183.17 C 575.76 213.30 584.07 245.96 587.00 278.97 C 586.51 284.39 588.48 289.62 588.03 295.04 C 587.60 303.73 588.82 312.55 587.29 321.16 C 586.31 342.23 582.63 363.23 576.67 383.49 C 565.18 424.57 544.10 462.91 515.75 494.76 C 504.46 508.46 490.94 520.08 477.21 531.25 C 465.97 539.87 454.31 548.00 441.86 554.80 C 436.63 558.20 430.55 560.06 425.50 563.76 C 424.99 563.87 423.97 564.09 423.46 564.20 C 392.85 579.49 359.01 587.88 325.04 591.01 C 319.97 590.49 315.08 592.31 310.03 592.04 C 304.03 591.97 298.02 591.97 292.02 592.04 C 286.95 592.32 282.06 590.50 276.98 591.00 C 248.04 588.41 219.34 581.82 192.49 570.60 C 183.30 567.21 174.85 562.18 166.00 558.03 C 148.59 548.75 132.16 537.62 117.08 524.89 C 112.97 521.69 109.43 517.85 105.24 514.73 C 99.88 509.12 93.87 504.09 89.14 497.90 C 70.32 477.56 54.93 454.16 42.66 429.35 C 40.87 425.17 39.11 420.98 37.00 416.95 C 35.13 412.14 33.42 407.27 31.40 402.52 C 21.91 376.06 15.98 348.18 14.70 320.11 C 13.47 314.82 14.14 309.37 14.00 304.00 C 14.21 297.96 13.38 291.83 14.70 285.88 C 16.58 255.15 23.07 224.50 34.79 195.96 C 36.64 189.81 40.11 184.36 42.33 178.36 C 53.85 154.73 68.51 132.63 85.73 112.78 C 89.66 109.30 92.33 104.70 96.26 101.22 C 130.30 67.00 172.68 40.86 219.01 26.98 C 237.59 21.42 256.76 18.06 276.02 16.02 M 285.58 18.40 C 282.78 19.06 279.89 19.04 277.04 19.00 C 246.54 21.73 216.50 29.39 188.32 41.35 C 182.18 44.67 175.37 46.61 169.57 50.57 C 147.79 61.73 127.67 76.10 109.74 92.72 C 106.21 97.27 100.67 99.72 97.54 104.59 C 94.24 108.94 89.64 112.09 86.53 116.60 C 52.79 155.35 30.19 203.52 21.30 254.10 C 19.83 264.02 17.89 273.95 17.94 284.01 C 16.15 293.23 17.36 302.66 16.97 311.98 C 16.52 317.39 18.49 322.61 18.00 328.01 C 19.77 348.16 23.89 368.05 29.40 387.50 C 40.70 423.14 58.46 456.83 82.35 485.67 C 86.25 489.78 89.46 494.51 93.78 498.24 C 97.51 502.49 100.80 507.21 105.66 510.31 C 124.76 529.58 147.57 544.79 171.34 557.69 C 198.85 571.58 228.54 581.30 259.02 585.92 C 265.71 586.31 272.24 588.39 278.97 587.99 C 283.04 587.71 286.94 589.27 291.00 589.05 C 299.33 588.81 307.68 589.29 315.99 588.83 C 320.97 587.57 326.14 588.41 331.15 587.35 C 350.77 585.29 370.24 581.27 388.92 574.86 C 424.20 563.76 456.88 545.01 484.97 521.04 C 489.22 517.96 492.24 513.53 496.58 510.55 C 502.74 506.03 506.63 499.30 512.27 494.27 C 526.26 478.86 538.37 461.76 548.54 443.60 C 559.28 423.52 568.97 402.64 574.43 380.45 C 579.45 363.71 582.01 346.35 583.98 329.04 C 583.48 322.95 585.53 317.06 585.02 310.98 C 584.65 301.66 585.83 292.23 584.07 283.02 C 584.20 276.63 582.98 270.35 582.22 264.04 C 575.07 210.23 551.80 158.78 516.49 117.60 C 513.03 112.71 507.95 109.30 504.53 104.39 C 500.93 99.32 495.13 96.52 491.25 91.71 C 478.24 79.48 463.61 69.09 448.60 59.45 C 441.75 55.56 434.86 51.73 427.96 47.93 C 416.32 42.64 404.77 37.03 392.49 33.33 C 370.74 25.60 347.92 21.15 324.98 18.99 C 319.57 19.48 314.34 17.51 308.93 17.97 C 301.15 18.30 293.31 17.44 285.58 18.40 Z" />
<path fill="#7c9bb1" opacity="1.00" d=" M 138.56 242.68 C 138.78 242.54 139.22 242.28 139.43 242.14 C 141.74 244.64 143.73 247.64 146.91 249.13 C 150.24 250.71 153.89 251.43 157.44 252.39 C 166.54 254.79 175.72 256.94 184.98 258.64 C 191.23 259.84 197.62 260.20 203.79 261.86 C 208.48 263.44 213.40 264.35 218.35 263.67 C 218.43 263.69 218.58 263.72 218.66 263.74 C 221.04 265.34 223.83 265.90 226.66 265.92 C 227.07 266.01 227.89 266.20 228.30 266.30 C 228.19 267.57 228.09 268.85 228.00 270.13 C 223.21 270.26 218.42 270.28 213.63 270.49 C 204.15 292.55 194.81 314.67 185.83 336.94 C 191.70 336.99 197.58 336.92 203.45 336.66 C 200.00 349.88 197.30 363.36 196.58 377.03 C 195.39 390.32 195.92 403.68 196.11 417.00 C 199.07 417.30 202.04 417.63 205.02 417.61 C 230.07 417.31 255.12 417.81 280.16 417.37 C 280.23 408.15 280.08 398.93 280.28 389.71 C 281.23 399.07 280.61 408.51 280.59 417.90 C 257.72 418.06 234.85 417.92 211.98 417.98 C 205.65 417.87 199.31 418.22 192.99 417.63 C 174.90 417.39 156.79 417.74 138.70 417.46 C 138.71 359.20 138.63 300.93 138.56 242.68 Z" />
</g>
<g id="#245574ff">
<path fill="#245574" opacity="1.00" d=" M 287.24 46.02 C 289.36 45.61 291.50 45.34 293.66 45.17 C 297.68 54.10 301.62 63.08 305.53 72.07 C 303.17 72.17 300.82 72.24 298.47 72.27 C 297.45 66.70 290.19 64.69 285.96 67.99 C 284.43 68.99 284.22 70.96 283.59 72.52 C 281.31 72.50 279.04 72.50 276.76 72.49 C 280.30 63.68 283.78 54.86 287.24 46.02 M 287.81 61.74 C 289.80 61.75 291.79 61.76 293.79 61.76 C 293.05 59.01 292.20 56.27 290.77 53.79 C 289.44 56.30 288.54 59.00 287.81 61.74 Z" />
<path fill="#245574" opacity="1.00" d=" M 309.33 45.34 C 315.52 45.84 322.93 44.54 327.86 49.20 C 331.32 53.88 328.02 60.04 323.50 62.56 C 325.77 65.99 327.62 69.66 329.39 73.37 C 326.88 73.15 324.36 73.01 321.84 72.96 C 319.49 69.04 318.74 64.16 315.19 61.03 C 314.51 64.84 314.24 68.71 313.96 72.58 C 311.80 72.37 309.64 72.14 307.49 71.91 C 308.03 63.05 308.82 54.20 309.33 45.34 M 316.02 51.02 C 313.98 52.60 314.30 56.61 317.14 57.13 C 319.30 57.97 323.72 57.32 322.48 54.08 C 322.18 51.01 318.37 50.83 316.02 51.02 Z" />
<path fill="#245574" opacity="1.00" d=" M 335.36 47.85 C 337.55 48.11 339.75 48.36 341.96 48.59 C 340.85 57.33 339.84 66.08 338.80 74.83 C 336.60 74.73 334.40 74.61 332.21 74.48 C 333.10 65.58 334.18 56.71 335.36 47.85 Z" />
<path fill="#245574" opacity="1.00" d=" M 243.98 51.39 C 246.13 51.01 248.29 50.61 250.45 50.23 C 251.67 56.92 252.91 63.60 253.98 70.32 C 257.54 71.08 260.99 69.66 264.46 69.06 C 264.67 71.04 264.87 73.02 265.08 75.01 C 259.57 75.75 254.12 76.77 248.70 77.98 C 247.06 69.13 245.47 60.27 243.98 51.39 Z" />
<path fill="#245574" opacity="1.00" d=" M 354.31 52.59 C 360.81 50.21 368.38 53.04 372.46 58.44 C 376.87 65.10 374.41 75.68 366.74 78.75 C 361.23 81.60 354.03 80.82 349.54 76.44 C 342.00 69.92 344.69 55.57 354.31 52.59 M 357.35 58.46 C 350.74 60.78 350.69 71.44 357.27 73.82 C 363.33 76.30 369.38 68.75 366.99 63.12 C 365.69 59.35 361.14 56.89 357.35 58.46 Z" />
<path fill="#245574" opacity="1.00" d=" M 229.95 55.19 C 232.11 54.55 234.26 53.92 236.42 53.28 C 238.78 61.84 241.08 70.41 243.32 79.00 C 241.28 79.70 239.25 80.42 237.23 81.12 C 234.47 72.57 232.41 63.82 229.95 55.19 Z" />
<path fill="#245574" opacity="1.00" d=" M 204.71 63.19 C 210.17 61.47 215.76 58.40 221.63 59.52 C 226.22 60.76 226.88 66.30 224.94 69.99 C 226.28 70.67 227.71 71.21 228.89 72.17 C 231.90 75.01 231.45 80.65 227.95 82.91 C 223.45 86.00 217.93 86.92 212.81 88.52 C 210.11 80.08 207.31 71.67 204.71 63.19 M 214.39 65.38 C 212.39 66.25 212.88 68.61 212.85 70.34 C 215.78 70.51 218.62 69.79 221.00 68.05 C 219.96 65.54 216.92 63.66 214.39 65.38 M 215.55 76.15 C 216.19 78.07 216.92 79.95 217.77 81.79 C 220.69 81.07 226.24 78.31 222.93 74.80 C 220.43 74.42 217.98 75.69 215.55 76.15 Z" />
<path fill="#245574" opacity="1.00" d=" M 385.69 61.79 C 391.70 59.86 397.80 63.50 401.45 68.13 C 399.78 69.15 398.10 70.16 396.43 71.16 C 393.98 68.49 390.43 65.30 386.69 67.78 C 388.49 71.96 392.78 74.08 395.12 77.83 C 397.68 82.98 392.49 89.37 386.99 88.74 C 381.65 88.71 376.59 85.61 373.93 81.01 C 375.74 80.02 377.56 79.04 379.39 78.07 C 381.50 80.63 384.07 84.44 387.97 83.02 C 388.81 81.61 389.08 79.51 387.60 78.41 C 384.61 75.86 380.58 73.38 380.46 69.00 C 381.02 66.05 382.36 62.45 385.69 61.79 Z" />
<path fill="#245574" opacity="1.00" d=" M 186.25 71.25 C 194.72 68.04 204.29 75.12 204.60 83.92 C 205.71 92.51 197.12 99.52 189.03 99.31 C 180.45 99.75 173.22 90.33 175.52 82.14 C 176.89 76.96 180.98 72.54 186.25 71.25 M 187.20 77.20 C 184.86 78.29 182.60 80.19 182.19 82.88 C 181.44 87.86 185.73 93.64 191.05 93.01 C 193.65 92.99 195.71 91.04 196.96 88.94 C 199.85 83.18 193.60 74.72 187.20 77.20 Z" />
<path fill="#245574" opacity="1.00" d=" M 401.45 94.01 C 408.60 88.01 416.09 82.41 423.33 76.52 C 425.34 77.50 427.34 78.50 429.33 79.54 C 428.21 89.05 427.25 98.57 426.06 108.06 C 423.94 107.17 421.84 106.24 419.77 105.27 C 419.88 103.24 419.99 101.21 420.09 99.19 C 417.31 97.63 414.51 96.11 411.71 94.60 C 410.06 95.97 408.31 97.85 405.95 97.44 C 403.93 97.16 402.78 95.32 401.45 94.01 M 415.77 90.84 C 417.53 91.72 419.30 92.62 421.15 93.33 C 422.00 90.56 422.23 87.67 422.64 84.82 C 420.29 86.76 417.99 88.76 415.77 90.84 Z" />
<path fill="#245574" opacity="1.00" d=" M 156.27 88.98 C 158.85 87.13 161.44 85.30 164.05 83.51 C 169.22 90.90 174.58 98.16 179.52 105.72 C 177.80 106.90 176.10 108.08 174.39 109.26 C 170.75 104.39 167.58 99.20 163.84 94.42 C 164.28 99.83 167.42 104.58 167.82 109.99 C 168.11 112.20 166.71 114.04 165.66 115.84 C 160.01 112.72 155.11 108.50 149.72 104.98 C 152.67 110.04 156.45 114.54 159.45 119.57 C 157.74 120.70 156.05 121.85 154.35 122.99 C 149.23 115.70 144.10 108.42 139.02 101.09 C 141.71 99.51 144.04 96.19 147.42 96.48 C 152.28 99.17 156.50 102.84 161.08 105.96 C 159.69 100.24 158.02 94.59 156.27 88.98 Z" />
<path fill="#245574" opacity="1.00" d=" M 440.36 92.38 C 448.56 89.67 458.83 95.16 459.59 104.17 C 458.09 104.59 456.62 105.35 455.04 105.28 C 452.42 103.43 451.73 99.31 448.28 98.58 C 441.80 96.48 435.05 105.21 439.17 110.84 C 440.97 113.70 444.56 113.99 447.57 114.47 C 447.86 116.49 448.16 118.51 448.45 120.54 C 441.09 121.33 433.64 116.81 431.51 109.64 C 429.12 102.70 433.64 94.77 440.36 92.38 Z" />
<path fill="#245574" opacity="1.00" d=" M 449.31 123.44 C 454.38 117.02 459.81 110.88 465.01 104.55 C 469.65 108.54 475.95 111.84 477.61 118.19 C 478.26 124.20 471.75 127.61 466.50 127.22 C 465.99 131.24 465.39 135.25 464.83 139.27 C 462.73 137.66 460.36 136.28 458.80 134.10 C 459.35 129.62 461.30 125.32 460.65 120.73 C 457.82 123.35 455.35 126.32 452.89 129.29 C 451.13 127.95 447.06 126.05 449.31 123.44 M 463.02 118.30 C 465.11 119.64 467.82 122.01 470.38 120.37 C 472.53 117.05 468.65 114.15 465.88 113.11 C 464.84 114.79 463.90 116.53 463.02 118.30 Z" />
<path fill="#245574" opacity="1.00" d=" M 127.54 111.36 C 129.04 109.79 130.56 108.26 132.09 106.73 C 138.47 113.09 144.42 119.86 150.58 126.43 C 148.76 128.14 146.90 129.83 145.04 131.50 C 138.71 129.66 132.36 127.87 125.95 126.31 C 129.75 130.40 133.73 134.33 137.39 138.56 C 135.87 140.03 134.35 141.52 132.84 143.00 C 126.67 136.52 120.52 130.02 114.32 123.58 C 116.04 121.83 117.81 120.12 119.60 118.44 C 126.21 119.85 132.66 121.89 139.18 123.63 C 135.35 119.49 131.50 115.37 127.54 111.36 Z" />
<path fill="#245574" opacity="1.00" d=" M 467.25 141.27 C 473.36 135.14 479.51 129.05 485.94 123.26 C 490.16 127.60 494.37 131.96 498.61 136.29 C 497.22 137.60 495.83 138.91 494.43 140.21 C 491.67 137.49 488.90 134.78 486.29 131.92 C 485.12 132.97 483.03 134.00 483.98 135.93 C 485.62 138.68 488.24 140.65 490.43 142.95 C 489.12 144.28 487.83 145.62 486.54 146.96 C 484.12 144.18 481.59 141.50 478.92 138.96 C 477.68 140.17 476.45 141.38 475.24 142.60 C 477.98 145.39 480.69 148.21 483.43 151.02 C 482.55 152.47 481.67 153.92 480.80 155.37 C 475.30 151.76 470.33 147.16 467.25 141.27 Z" />
<path fill="#245574" opacity="1.00" d=" M 108.43 129.51 C 115.25 135.30 122.29 140.92 128.58 147.26 C 128.44 149.09 125.97 150.52 124.75 152.00 C 117.63 146.72 111.13 140.67 104.36 134.95 C 105.70 133.13 107.07 131.32 108.43 129.51 Z" />
<path fill="#245574" opacity="1.00" d=" M 482.02 158.59 C 489.28 153.39 496.46 148.07 503.82 143.00 C 507.51 148.29 512.57 153.28 513.29 160.02 C 514.13 169.00 503.40 176.37 495.24 172.74 C 488.84 170.36 485.86 163.72 482.02 158.59 M 490.65 160.50 C 492.11 163.13 493.96 165.87 497.00 166.81 C 502.15 168.65 508.06 163.17 506.65 157.87 C 506.39 155.37 504.36 153.71 502.66 152.11 C 498.47 154.63 494.61 157.64 490.65 160.50 Z" />
<path fill="#245574" opacity="1.00" d=" M 86.51 158.38 C 87.57 153.20 92.03 149.68 96.77 147.93 C 97.53 149.47 99.31 151.07 98.19 152.91 C 96.52 154.67 94.32 155.82 92.63 157.56 C 91.30 159.02 92.75 160.85 93.06 162.41 C 96.82 160.98 99.80 158.11 103.53 156.67 C 108.45 154.88 113.58 160.06 113.13 164.93 C 112.68 171.13 107.55 176.13 101.69 177.62 C 101.40 175.73 101.11 173.85 100.83 171.96 C 103.60 170.57 107.42 168.79 107.12 165.09 C 106.53 164.21 105.74 162.48 104.43 163.47 C 100.65 165.17 97.35 168.56 92.92 168.29 C 88.20 168.09 85.31 162.66 86.51 158.38 Z" />
<path fill="#245574" opacity="1.00" d=" M 70.63 183.76 C 73.48 178.48 76.50 173.30 79.66 168.20 C 81.25 169.09 82.85 169.98 84.44 170.87 C 82.69 174.32 80.67 177.62 78.69 180.93 C 79.90 181.82 81.11 182.70 82.33 183.58 C 84.49 180.44 86.49 177.20 88.36 173.87 C 89.92 174.77 91.46 175.68 93.02 176.59 C 91.50 179.47 89.27 181.99 88.16 185.07 C 87.39 187.14 90.26 188.64 91.82 188.51 C 94.45 185.47 96.04 181.67 98.17 178.28 C 99.75 179.03 101.34 179.79 102.93 180.53 C 100.38 186.36 97.07 191.81 93.77 197.24 C 86.05 192.77 78.33 188.27 70.63 183.76 Z" />
<path fill="#245574" opacity="1.00" d=" M 498.52 182.37 C 506.32 178.21 513.98 173.78 521.56 169.23 C 522.45 171.35 523.32 173.48 524.17 175.62 C 516.68 179.80 509.33 184.21 501.90 188.49 C 500.75 186.46 499.61 184.43 498.52 182.37 Z" />
<path fill="#245574" opacity="1.00" d=" M 522.17 180.50 C 523.91 179.65 525.68 178.83 527.45 178.00 C 530.26 184.74 535.43 190.45 536.67 197.83 C 535.28 198.45 533.90 199.07 532.52 199.71 C 531.20 197.56 529.91 195.40 528.61 193.24 C 522.67 196.50 516.69 199.68 510.73 202.89 C 508.98 201.31 507.85 199.25 507.04 197.07 C 513.30 193.92 519.49 190.65 525.62 187.25 C 524.46 185.01 523.31 182.75 522.17 180.50 Z" />
<path fill="#245574" opacity="1.00" d=" M 59.13 208.32 C 61.97 201.40 65.22 194.65 68.68 188.02 C 73.70 189.23 72.21 194.35 70.69 197.80 C 76.80 200.65 82.92 203.47 89.03 206.29 C 88.36 208.39 87.62 210.46 86.83 212.51 C 80.27 209.83 73.90 206.69 67.42 203.80 C 66.39 206.01 65.34 208.22 64.26 210.41 C 62.54 209.73 60.83 209.04 59.13 208.32 Z" />
<path fill="#245574" opacity="1.00" d=" M 398.65 215.65 C 403.79 211.93 408.94 208.23 414.14 204.60 C 430.71 217.15 447.10 229.95 463.74 242.41 C 463.81 300.88 463.64 359.36 463.83 417.83 C 405.20 417.63 346.58 417.82 287.95 417.74 C 285.50 417.72 283.04 417.76 280.59 417.90 C 280.61 408.51 281.23 399.07 280.28 389.71 C 279.98 386.42 279.55 383.14 279.08 379.88 C 281.04 377.99 280.50 375.23 279.30 373.10 C 278.93 371.38 278.57 369.66 278.19 367.94 C 279.81 366.31 279.53 363.85 278.28 362.11 C 278.01 361.56 277.47 360.46 277.20 359.91 C 279.12 359.29 278.19 356.98 277.02 356.10 C 275.69 351.51 275.25 346.71 273.78 342.16 C 272.33 338.19 267.12 339.23 263.86 337.98 L 263.71 337.80 C 264.01 337.41 264.61 336.64 264.91 336.25 C 269.22 336.19 273.53 336.40 277.82 336.82 C 277.86 314.71 278.10 292.61 278.00 270.50 C 272.67 270.50 267.33 270.50 262.00 270.50 C 262.00 279.37 262.02 288.23 261.92 297.09 C 256.73 286.85 251.50 276.57 247.66 265.73 C 249.95 265.20 252.23 264.59 254.51 263.98 C 257.86 263.94 261.21 263.86 264.55 263.60 C 287.52 261.81 310.03 256.20 331.87 249.04 C 355.40 240.72 377.90 229.52 398.65 215.65 M 368.24 275.27 C 352.85 286.07 350.04 309.90 361.18 324.68 C 366.97 332.51 376.47 336.98 386.01 337.96 C 396.24 339.19 406.73 337.17 415.86 332.42 C 416.17 320.79 415.91 309.14 416.00 297.50 C 406.90 297.49 397.79 297.53 388.69 297.48 C 388.78 301.81 388.78 306.15 388.67 310.48 C 392.89 310.50 397.12 310.52 401.34 310.47 C 401.46 314.47 401.46 318.47 401.35 322.47 C 393.61 324.64 384.11 325.06 377.82 319.23 C 370.92 312.45 369.63 300.81 374.41 292.47 C 380.31 281.31 397.10 280.18 405.54 289.02 C 408.93 285.23 412.59 281.70 415.86 277.81 C 402.90 266.51 382.41 265.95 368.24 275.27 M 283.37 336.75 C 288.86 336.76 294.36 336.72 299.85 336.79 C 302.88 332.97 303.84 328.13 305.64 323.71 C 314.08 323.79 322.53 323.73 330.97 323.75 C 332.49 327.73 334.06 331.70 335.40 335.76 C 341.48 337.53 347.83 336.70 354.06 336.78 C 344.77 314.75 335.57 292.67 326.67 270.48 C 321.35 270.51 316.04 270.50 310.73 270.49 C 301.64 292.59 292.56 314.69 283.37 336.75 Z" />
<path fill="#245574" opacity="1.00" d=" M 512.37 207.45 C 522.16 207.89 531.97 207.58 541.74 208.45 C 542.44 210.28 543.12 212.11 543.80 213.96 C 536.99 220.48 530.20 227.02 523.78 233.93 C 521.59 232.34 521.06 229.69 520.43 227.25 C 521.78 225.93 523.11 224.60 524.43 223.25 C 523.13 220.29 521.88 217.31 520.68 214.31 C 518.74 214.23 516.82 214.12 514.90 214.01 C 514.04 211.83 513.19 209.64 512.37 207.45 M 526.30 213.76 C 527.05 215.69 527.82 217.63 528.62 219.55 C 530.92 217.73 533.18 215.85 535.32 213.83 C 532.31 213.74 529.31 213.74 526.30 213.76 Z" />
<path fill="#245574" opacity="1.00" d=" M 55.32 219.43 C 56.04 217.36 56.76 215.29 57.49 213.23 C 66.01 216.16 74.59 218.94 83.01 222.15 C 82.33 224.46 81.89 227.21 79.59 228.51 C 74.72 232.08 67.96 230.24 63.05 233.65 C 66.70 237.12 71.92 237.07 76.43 238.59 C 75.93 240.80 75.44 243.02 74.95 245.24 C 66.40 242.43 57.87 239.56 49.43 236.46 C 50.16 234.18 50.91 231.92 51.69 229.67 C 58.12 227.66 64.82 226.71 71.25 224.67 C 65.97 222.83 60.64 221.14 55.32 219.43 Z" />
<path fill="#245574" opacity="1.00" d=" M 523.76 235.78 C 532.46 233.92 541.15 232.06 549.80 230.00 C 551.04 235.90 553.44 241.87 552.30 247.99 C 550.76 257.37 536.99 261.30 530.55 254.45 C 525.61 249.55 525.23 242.19 523.76 235.78 M 530.74 241.19 C 531.48 244.70 532.50 248.91 536.04 250.61 C 539.36 251.30 543.69 250.84 545.55 247.58 C 547.49 244.52 547.00 240.68 545.68 237.48 C 540.74 238.88 535.62 239.55 530.74 241.19 Z" />
<path fill="#245574" opacity="1.00" d=" M 44.01 262.55 C 45.20 256.60 46.23 250.61 47.79 244.75 C 49.61 245.10 51.43 245.47 53.25 245.84 C 52.68 249.27 51.31 252.54 51.00 256.01 C 51.04 258.25 53.68 258.27 55.24 258.84 C 56.10 255.74 56.33 252.49 57.37 249.44 C 58.05 247.34 60.59 247.67 62.31 247.35 C 63.04 251.53 61.29 255.51 60.92 259.63 C 62.65 259.82 64.39 260.00 66.13 260.18 C 66.87 256.19 67.61 252.20 68.42 248.22 C 70.27 248.57 72.13 248.91 74.00 249.25 C 72.87 255.43 71.78 261.62 70.49 267.77 C 61.64 266.12 52.82 264.35 44.01 262.55 Z" />
<path fill="#245574" opacity="1.00" d=" M 542.50 261.57 C 546.18 260.89 550.20 261.54 553.32 263.68 C 560.49 268.99 561.56 280.82 555.07 287.09 C 549.55 291.98 540.48 292.01 535.19 286.74 C 529.56 281.09 529.35 270.75 535.12 265.12 C 537.10 263.15 539.83 262.19 542.50 261.57 M 543.40 268.44 C 540.42 269.39 537.37 271.69 537.02 275.02 C 536.70 279.75 541.22 284.12 545.91 283.90 C 549.04 283.28 552.28 281.20 553.10 277.94 C 554.41 272.60 548.67 267.10 543.40 268.44 Z" />
<path fill="#245574" opacity="1.00" d=" M 45.34 292.65 C 39.82 286.60 40.02 276.82 44.86 270.42 C 46.52 271.56 48.18 272.70 49.83 273.85 C 47.97 277.42 46.26 281.82 48.26 285.70 C 50.86 289.96 57.77 291.03 61.21 287.20 C 63.90 284.97 64.11 281.26 63.06 278.17 C 61.58 278.02 60.10 277.87 58.62 277.72 C 58.44 279.42 58.27 281.11 58.10 282.82 C 56.35 282.60 54.60 282.37 52.85 282.15 C 53.13 278.52 53.45 274.88 53.79 271.25 C 58.55 271.58 63.31 271.93 68.07 272.24 C 70.82 278.75 70.06 286.85 65.28 292.22 C 60.34 297.90 50.61 297.82 45.34 292.65 Z" />
<path fill="#245574" opacity="1.00" d=" M 310.24 310.50 C 313.13 303.35 315.65 296.07 318.32 288.84 C 321.27 295.96 323.71 303.27 326.38 310.50 C 321.00 310.50 315.62 310.50 310.24 310.50 Z" />
<path fill="#245574" opacity="1.00" d=" M 535.11 294.27 C 536.91 295.20 538.72 296.12 540.55 297.04 C 539.50 299.61 538.06 302.19 538.12 305.05 C 538.27 306.88 540.08 307.88 541.76 307.87 C 544.68 304.38 544.48 299.08 547.97 295.98 C 551.39 293.76 556.64 294.51 558.91 298.05 C 562.17 302.84 561.34 309.35 558.39 314.10 C 556.91 312.95 555.45 311.81 553.98 310.67 C 555.16 307.45 557.10 301.60 551.80 301.28 C 549.85 304.91 549.53 309.44 546.46 312.44 C 543.15 316.09 536.79 314.57 534.46 310.56 C 531.41 305.54 532.82 299.29 535.11 294.27 Z" />
<path fill="#245574" opacity="1.00" d=" M 41.06 309.21 C 49.86 305.26 58.62 301.21 67.56 297.58 C 67.56 299.99 67.57 302.41 67.61 304.83 C 65.86 305.80 64.11 306.76 62.36 307.73 C 62.43 310.76 62.25 313.86 63.09 316.82 C 64.64 317.98 66.95 318.32 67.82 320.23 C 68.57 322.15 68.25 324.26 68.31 326.28 C 59.04 322.97 49.86 319.37 40.96 315.17 C 40.99 313.18 41.02 311.19 41.06 309.21 M 48.90 312.40 C 51.60 313.48 54.36 314.44 57.16 315.28 C 57.20 313.27 57.24 311.26 57.28 309.25 C 54.45 310.22 51.64 311.22 48.90 312.40 Z" />
<path fill="#245574" opacity="1.00" d=" M 65.98 419.42 C 73.67 415.01 81.33 410.53 89.11 406.25 C 92.36 412.18 97.14 417.97 96.82 425.12 C 95.91 433.68 85.38 439.26 77.78 435.21 C 71.78 431.90 68.82 425.33 65.98 419.42 M 73.96 422.51 C 76.01 426.15 79.20 430.58 84.00 429.63 C 90.77 429.24 92.87 418.70 86.88 415.59 C 82.36 417.46 78.29 420.25 73.96 422.51 Z" />
<path fill="#245574" opacity="1.00" d=" M 504.40 424.58 C 512.82 421.92 522.79 429.01 522.71 437.93 C 523.12 445.65 516.63 453.00 508.88 453.42 C 503.46 454.27 498.42 450.75 495.44 446.52 C 490.95 438.56 495.65 427.16 504.40 424.58 M 505.21 431.17 C 502.40 432.69 499.65 435.65 500.17 439.10 C 500.94 443.54 505.41 447.54 510.07 446.63 C 512.99 446.26 515.18 443.69 515.98 440.98 C 517.27 435.26 510.90 428.98 505.21 431.17 Z" />
<path fill="#245574" opacity="1.00" d=" M 80.42 445.38 C 87.71 440.07 95.08 434.86 102.68 430.00 C 106.06 434.86 109.58 439.62 112.81 444.59 C 111.18 445.66 109.55 446.74 107.93 447.83 C 106.13 445.32 104.94 442.34 102.74 440.14 C 101.49 438.91 99.65 439.51 98.12 439.53 C 98.81 443.79 101.89 446.92 104.11 450.43 C 102.50 451.29 100.90 452.16 99.29 453.02 C 97.35 450.03 95.35 447.10 93.28 444.21 C 91.90 445.06 90.52 445.92 89.14 446.78 C 91.10 450.65 93.80 454.06 96.00 457.79 C 94.27 458.77 92.48 459.68 90.49 459.93 C 87.30 454.97 83.95 450.10 80.42 445.38 Z" />
<path fill="#245574" opacity="1.00" d=" M 490.31 442.01 C 491.71 443.31 493.12 444.59 494.54 445.89 C 493.06 447.66 491.59 449.43 490.14 451.23 C 495.46 455.97 501.26 460.10 506.79 464.58 C 505.30 466.22 503.83 467.87 502.34 469.52 C 496.85 465.34 491.40 461.09 486.00 456.79 C 484.46 458.76 482.88 460.71 481.26 462.63 C 479.76 461.47 478.28 460.29 476.82 459.09 C 481.28 453.37 485.82 447.71 490.31 442.01 Z" />
<path fill="#245574" opacity="1.00" d=" M 93.75 463.42 C 100.81 458.01 107.77 452.47 114.80 447.02 C 116.14 448.76 117.50 450.49 118.88 452.22 C 113.50 456.65 107.94 460.86 102.50 465.22 C 104.57 468.05 106.67 470.86 108.77 473.67 C 107.14 474.71 105.49 475.71 103.84 476.74 C 100.53 472.26 97.05 467.91 93.75 463.42 Z" />
<path fill="#245574" opacity="1.00" d=" M 468.31 467.66 C 469.64 466.21 470.95 464.75 472.24 463.27 C 481.68 466.12 490.78 469.98 499.97 473.54 C 498.30 475.18 496.65 476.82 494.99 478.46 C 493.20 477.89 491.40 477.33 489.60 476.81 C 487.51 479.26 484.37 480.99 483.09 484.04 C 483.50 485.67 484.51 487.15 484.70 488.85 C 483.72 491.05 481.69 492.54 480.09 494.28 C 476.19 485.39 472.09 476.60 468.31 467.66 M 476.86 471.01 C 477.34 473.54 477.29 477.13 480.12 478.28 C 481.84 478.08 483.14 476.54 483.46 474.91 C 482.33 472.24 479.35 471.64 476.86 471.01 Z" />
<path fill="#245574" opacity="1.00" d=" M 130.37 465.82 C 134.82 469.92 139.20 474.09 143.42 478.43 C 142.05 479.83 140.70 481.26 139.32 482.65 C 136.74 480.27 134.89 477.00 131.79 475.24 C 130.11 474.22 126.63 476.58 128.69 478.30 C 130.54 481.19 133.95 482.78 135.54 485.85 C 134.82 487.18 133.85 488.67 132.17 488.80 C 128.78 487.43 127.16 483.62 123.80 482.21 C 121.78 482.27 121.17 484.43 120.24 485.83 C 123.44 488.57 127.12 491.04 128.83 495.06 C 127.43 495.89 126.03 496.73 124.63 497.57 C 120.35 493.84 116.40 489.76 112.39 485.76 C 116.83 477.82 124.37 472.45 130.37 465.82 Z" />
<path fill="#245574" opacity="1.00" d=" M 456.48 478.98 C 458.13 477.66 459.53 475.89 461.51 475.06 C 466.21 479.82 470.80 484.82 474.43 490.46 C 478.65 499.53 466.51 510.12 458.05 504.96 C 452.78 500.60 448.76 494.97 444.11 490.00 C 445.70 488.49 447.30 486.98 448.89 485.48 C 453.27 489.70 456.68 494.83 461.27 498.83 C 464.80 501.81 470.51 496.67 468.27 492.85 C 464.62 488.00 460.31 483.68 456.48 478.98 Z" />
<path fill="#245574" opacity="1.00" d=" M 138.40 492.67 C 135.69 487.57 141.65 481.41 146.93 482.64 C 152.12 483.29 155.93 487.46 157.60 492.20 C 165.61 493.37 170.39 500.51 177.04 504.31 C 175.88 505.79 174.72 507.29 173.57 508.79 C 171.70 507.44 169.84 506.10 167.96 504.77 C 163.25 509.64 159.73 515.46 155.77 520.92 C 153.63 520.33 151.64 519.34 149.79 518.13 C 153.30 511.95 158.09 506.65 161.97 500.71 C 158.09 499.03 157.12 492.27 152.11 493.87 C 150.90 491.01 148.58 487.32 144.90 488.75 C 143.40 491.69 146.55 493.89 147.70 496.34 C 150.20 499.71 149.66 504.75 146.48 507.49 C 143.30 509.76 138.87 509.29 135.57 507.52 C 131.82 505.29 129.58 501.28 128.29 497.23 C 130.24 496.91 132.19 496.60 134.15 496.30 C 135.51 498.90 136.54 502.77 139.99 503.18 C 140.71 502.97 142.14 502.55 142.86 502.35 C 142.13 498.79 140.08 495.81 138.40 492.67 Z" />
<path fill="#245574" opacity="1.00" d=" M 436.86 495.20 C 438.57 493.90 440.29 492.60 442.01 491.30 C 446.19 497.31 451.16 502.84 454.46 509.42 C 456.79 515.35 450.62 520.92 444.93 520.77 C 442.43 521.34 439.80 518.60 441.09 516.21 C 443.20 514.37 446.08 513.92 448.65 513.01 C 445.64 506.48 440.36 501.43 436.86 495.20 Z" />
<path fill="#245574" opacity="1.00" d=" M 415.20 508.89 C 417.06 507.77 418.90 506.62 420.74 505.48 C 428.41 511.43 436.87 516.38 443.87 523.16 C 442.05 524.24 440.23 525.89 437.96 525.68 C 436.09 525.38 434.54 524.20 432.92 523.33 C 430.21 524.75 427.61 526.35 425.11 528.11 C 425.06 529.92 425.36 531.84 424.71 533.60 C 423.80 535.77 421.41 536.65 419.56 537.83 C 417.96 528.20 416.80 518.51 415.20 508.89 M 421.91 513.80 C 422.39 516.83 423.07 519.83 423.88 522.80 C 425.54 521.61 427.19 520.41 428.84 519.21 C 426.56 517.37 424.26 515.55 421.91 513.80 Z" />
<path fill="#245574" opacity="1.00" d=" M 182.29 507.02 C 184.13 508.03 185.95 509.06 187.78 510.09 C 186.46 519.71 184.98 529.30 183.55 538.90 C 181.54 537.67 179.52 536.46 177.48 535.31 C 177.38 533.21 177.30 531.11 177.23 529.01 C 174.81 527.51 172.38 526.00 169.96 524.50 C 168.36 525.55 166.76 526.62 165.18 527.71 C 163.25 526.62 161.31 525.54 159.37 524.50 C 166.26 517.74 174.65 512.84 182.29 507.02 M 174.16 520.90 C 175.57 521.93 176.77 523.54 178.62 523.82 C 181.13 521.96 180.85 518.61 180.78 515.86 C 177.86 516.44 175.20 517.93 174.16 520.90 Z" />
<path fill="#245574" opacity="1.00" d=" M 400.28 516.21 C 402.32 515.50 404.36 514.77 406.41 514.06 C 410.01 522.16 413.82 530.17 417.47 538.25 C 415.29 539.27 413.11 540.30 410.94 541.33 C 405.21 537.73 399.62 533.94 393.94 530.28 C 396.20 535.56 398.98 540.60 401.04 545.97 C 399.01 546.78 396.97 547.58 394.95 548.40 C 391.60 540.22 387.70 532.28 383.91 524.30 C 386.61 523.10 389.80 519.79 392.76 522.18 C 397.68 525.45 402.55 528.79 407.54 531.97 C 405.07 526.74 402.64 521.49 400.28 516.21 Z" />
<path fill="#245574" opacity="1.00" d=" M 196.60 515.01 C 203.07 516.81 209.73 519.71 213.71 525.38 C 215.90 528.37 216.32 532.26 215.56 535.83 C 217.05 531.70 220.64 528.36 225.06 527.69 C 230.50 526.91 236.51 528.67 240.29 532.77 C 246.05 539.04 243.78 550.32 236.30 554.22 C 229.65 558.32 219.62 555.99 216.03 548.87 C 213.82 545.23 214.00 540.84 213.77 536.75 C 212.65 540.22 210.38 543.62 206.62 544.52 C 199.20 546.84 192.20 542.17 185.71 539.23 C 188.89 530.96 193.09 523.14 196.60 515.01 M 194.04 536.96 C 196.28 537.82 198.54 538.80 200.98 538.96 C 206.82 539.52 210.94 531.27 207.11 526.88 C 205.53 524.48 202.69 523.71 200.03 523.26 C 197.95 527.79 195.67 532.24 194.04 536.96 M 226.29 534.24 C 220.65 536.37 219.55 544.22 223.71 548.27 C 227.84 552.77 236.06 548.76 236.14 542.98 C 237.06 537.73 231.72 531.24 226.29 534.24 Z" />
<path fill="#245574" opacity="1.00" d=" M 367.73 529.43 C 369.73 528.69 371.72 527.96 373.73 527.25 C 380.23 534.49 386.95 541.53 393.39 548.82 C 391.06 549.59 388.72 550.34 386.37 551.04 C 385.05 549.79 383.73 548.55 382.42 547.31 C 379.74 548.30 376.78 548.76 374.36 550.35 C 372.45 551.63 372.76 554.10 372.80 556.10 C 370.65 556.91 368.50 557.71 366.35 558.51 C 366.65 548.81 367.21 539.12 367.73 529.43 M 373.28 536.90 C 373.17 539.28 373.14 541.67 373.12 544.06 C 374.80 543.88 376.48 543.70 378.17 543.54 C 377.93 540.46 376.14 538.03 373.28 536.90 Z" />
<path fill="#245574" opacity="1.00" d=" M 352.03 532.72 C 354.14 532.34 356.25 531.94 358.37 531.54 C 359.64 538.05 362.39 544.28 362.63 550.97 C 363.13 556.34 357.81 560.31 353.02 561.20 C 348.25 562.11 342.35 560.08 340.70 555.13 C 338.69 549.17 337.58 542.94 335.88 536.89 C 338.03 536.33 340.19 535.81 342.35 535.30 C 344.09 541.13 344.99 547.22 347.18 552.91 C 348.79 556.86 354.79 555.36 356.16 551.93 C 355.53 545.39 352.99 539.21 352.03 532.72 Z" />
<path fill="#245574" opacity="1.00" d=" M 255.66 535.27 C 262.66 535.85 270.50 535.99 276.07 540.89 C 281.48 547.09 279.26 558.20 271.63 561.57 C 265.54 564.13 258.86 562.29 252.57 561.74 C 253.27 552.87 254.42 544.06 255.66 535.27 M 259.57 557.12 C 263.09 557.30 267.22 557.62 269.98 554.95 C 272.57 552.72 272.64 548.69 271.32 545.78 C 269.21 542.50 264.97 542.05 261.52 541.19 C 260.66 546.47 260.03 551.79 259.57 557.12 Z" />
<path fill="#245574" opacity="1.00" d=" M 316.13 540.22 C 321.53 535.51 329.58 536.20 335.62 539.25 C 334.51 540.86 333.37 542.46 332.21 544.04 C 328.97 542.62 325.12 542.09 321.90 543.87 C 317.31 546.71 317.06 554.34 321.37 557.57 C 323.69 559.61 326.95 559.53 329.85 559.32 C 330.37 557.93 330.91 556.55 331.45 555.17 C 329.59 554.52 327.68 553.96 325.95 553.04 C 324.38 552.31 325.16 550.15 324.82 548.84 C 328.75 548.32 332.70 548.04 336.65 547.96 C 336.77 552.76 337.09 557.54 337.33 562.34 C 331.29 564.84 324.04 566.57 317.99 563.17 C 310.06 558.62 308.87 545.93 316.13 540.22 Z" />
<path fill="#245574" opacity="1.00" d=" M 281.50 564.91 C 281.75 556.09 282.15 547.29 282.53 538.48 C 288.63 538.72 294.74 538.67 300.82 539.18 C 300.58 541.02 300.31 542.87 300.01 544.72 C 296.14 544.51 292.27 544.46 288.40 544.50 C 288.44 546.14 287.82 548.74 290.13 549.14 C 293.21 549.75 296.38 549.15 299.51 549.28 C 299.52 551.02 299.53 552.77 299.55 554.53 C 295.82 554.82 292.07 554.76 288.34 554.55 C 288.25 556.19 288.17 557.86 288.09 559.52 C 292.20 559.62 296.30 559.87 300.40 560.25 C 300.40 562.07 300.40 563.90 300.40 565.73 C 294.09 565.77 287.74 566.00 281.50 564.91 Z" />
</g>
<g id="#2b5a78ff">
<path fill="#2b5a78" opacity="1.00" d=" M 264.83 47.87 C 267.03 47.63 269.22 47.39 271.42 47.17 C 272.52 56.06 273.71 64.95 274.60 73.87 C 272.42 74.11 270.24 74.36 268.06 74.58 C 266.81 65.70 265.76 56.79 264.83 47.87 Z" />
</g>
<g id="#abd0dfff">
<path fill="#abd0df" opacity="1.00" d=" M 300.42 119.45 C 301.44 118.51 302.56 120.05 303.52 120.43 C 316.53 130.16 329.49 139.97 342.28 150.01 C 333.21 155.61 324.14 161.22 315.43 167.37 C 284.99 189.67 258.23 217.30 238.59 249.63 C 233.44 243.87 229.61 237.11 224.91 231.00 C 216.22 219.46 207.21 208.00 196.46 198.29 L 196.26 198.12 C 198.61 196.56 200.90 194.92 203.12 193.17 C 217.77 181.79 232.57 170.60 247.36 159.40 C 264.93 145.93 282.47 132.40 300.42 119.45 Z" />
<path fill="#abd0df" opacity="1.00" d=" M 538.41 367.65 C 546.45 365.15 554.70 374.14 551.95 381.96 C 549.93 389.94 537.94 392.82 532.73 386.30 C 526.98 380.46 530.40 369.33 538.41 367.65 Z" />
<path fill="#abd0df" opacity="1.00" d=" M 56.35 368.45 C 61.04 366.14 67.12 367.49 70.27 371.71 C 74.61 376.80 73.03 386.01 66.61 388.60 C 61.92 391.08 55.54 390.01 52.41 385.59 C 48.13 380.27 50.18 371.36 56.35 368.45 Z" />
</g>
<g id="#446783ff">
<path fill="#446783" opacity="1.00" d=" M 315.43 167.37 C 324.14 161.22 333.21 155.61 342.28 150.01 C 366.20 168.25 390.36 186.16 414.14 204.60 C 408.94 208.23 403.79 211.93 398.65 215.65 C 377.90 229.52 355.40 240.72 331.87 249.04 C 310.03 256.20 287.52 261.81 264.55 263.60 C 261.20 262.94 257.74 262.66 254.51 263.98 C 252.23 264.59 249.95 265.20 247.66 265.73 C 241.98 264.80 236.22 264.63 230.54 263.74 C 233.58 259.25 235.95 254.35 238.59 249.63 C 258.23 217.30 284.99 189.67 315.43 167.37 Z" />
</g>
<g id="#7794aeff">
<path fill="#7794ae" opacity="1.00" d=" M 139.43 242.14 C 158.07 227.05 177.39 212.84 196.46 198.29 C 207.21 208.00 216.22 219.46 224.91 231.00 C 229.61 237.11 233.44 243.87 238.59 249.63 C 235.95 254.35 233.58 259.25 230.54 263.74 C 229.81 264.61 229.05 265.45 228.30 266.30 C 227.89 266.20 227.07 266.01 226.66 265.92 C 224.05 264.99 221.38 264.23 218.66 263.74 C 218.58 263.72 218.43 263.69 218.35 263.67 C 213.61 262.30 208.68 262.08 203.79 261.86 C 197.62 260.20 191.23 259.84 184.98 258.64 C 175.72 256.94 166.54 254.79 157.44 252.39 C 153.89 251.43 150.24 250.71 146.91 249.13 C 143.73 247.64 141.74 244.64 139.43 242.14 Z" />
</g>
<g id="#9bb1c3ff">
<path fill="#9bb1c3" opacity="1.00" d=" M 203.79 261.86 C 208.68 262.08 213.61 262.30 218.35 263.67 C 213.40 264.35 208.48 263.44 203.79 261.86 Z" />
</g>
<g id="#618098ff">
<path fill="#618098" opacity="1.00" d=" M 254.51 263.98 C 257.74 262.66 261.20 262.94 264.55 263.60 C 261.21 263.86 257.86 263.94 254.51 263.98 Z" />
</g>
<g id="#a2b7c7ff">
<path fill="#a2b7c7" opacity="1.00" d=" M 218.66 263.74 C 221.38 264.23 224.05 264.99 226.66 265.92 C 223.83 265.90 221.04 265.34 218.66 263.74 Z" />
</g>
<g id="#004966ff">
<path fill="#004966" opacity="1.00" d=" M 228.30 266.30 C 229.05 265.45 229.81 264.61 230.54 263.74 C 236.22 264.63 241.98 264.80 247.66 265.73 C 251.50 276.57 256.73 286.85 261.92 297.09 C 262.11 309.41 262.00 321.74 262.11 334.06 C 261.95 335.53 262.87 336.70 263.71 337.80 L 263.86 337.98 C 267.12 339.23 272.33 338.19 273.78 342.16 C 275.25 346.71 275.69 351.51 277.02 356.10 C 276.59 357.42 276.65 358.69 277.20 359.91 C 277.47 360.46 278.01 361.56 278.28 362.11 C 277.56 363.98 277.61 366.03 278.19 367.94 C 278.57 369.66 278.93 371.38 279.30 373.10 C 278.79 375.32 278.57 377.63 279.08 379.88 C 279.55 383.14 279.98 386.42 280.28 389.71 C 280.08 398.93 280.23 408.15 280.16 417.37 C 255.12 417.81 230.07 417.31 205.02 417.61 C 202.04 417.63 199.07 417.30 196.11 417.00 C 195.92 403.68 195.39 390.32 196.58 377.03 C 197.30 363.36 200.00 349.88 203.45 336.66 C 204.87 332.29 206.74 328.08 208.30 323.76 C 216.78 323.76 225.25 323.69 233.73 323.80 C 235.28 328.22 236.84 332.66 239.19 336.74 C 244.96 336.76 250.73 336.74 256.50 336.75 C 249.45 319.14 242.15 301.64 234.81 284.15 C 232.69 279.42 231.45 274.14 228.00 270.13 C 228.09 268.85 228.19 267.57 228.30 266.30 Z" />
<path fill="#004966" opacity="1.00" d=" M 220.63 289.41 L 221.16 288.91 C 223.82 296.09 226.56 303.23 228.96 310.51 C 223.67 310.50 218.37 310.50 213.07 310.50 C 215.50 303.44 218.32 296.51 220.63 289.41 Z" />
</g>
<g id="#42748bff">
<path fill="#42748b" opacity="1.00" d=" M 277.02 356.10 C 278.19 356.98 279.12 359.29 277.20 359.91 C 276.65 358.69 276.59 357.42 277.02 356.10 Z" />
</g>
<g id="#43738bff">
<path fill="#43738b" opacity="1.00" d=" M 278.28 362.11 C 279.53 363.85 279.81 366.31 278.19 367.94 C 277.61 366.03 277.56 363.98 278.28 362.11 Z" />
</g>
<g id="#3c7088ff">
<path fill="#3c7088" opacity="1.00" d=" M 279.30 373.10 C 280.50 375.23 281.04 377.99 279.08 379.88 C 278.57 377.63 278.79 375.32 279.30 373.10 Z" />
</g>
<g id="#446d88ff">
<path fill="#446d88" opacity="1.00" d=" M 525.40 423.38 C 529.09 421.49 532.70 427.18 530.24 430.12 C 528.55 432.16 524.67 431.95 523.48 429.49 C 522.25 427.39 523.11 424.34 525.40 423.38 Z" />
</g>
<g id="#d3dce2ff">
<path fill="#d3dce2" opacity="1.00" d=" M 174.16 520.90 C 175.20 517.93 177.86 516.44 180.78 515.86 C 180.85 518.61 181.13 521.96 178.62 523.82 C 176.77 523.54 175.57 521.93 174.16 520.90 Z" />
</g>
</svg>
