<?xml version="1.0" encoding="UTF-8" ?>
<!DOCTYPE svg PUBLIC "-//W3C//DTD SVG 1.1//EN" "http://www.w3.org/Graphics/SVG/1.1/DTD/svg11.dtd">
<svg width="459pt" height="467pt" viewBox="0 0 459 467" version="1.1" xmlns="http://www.w3.org/2000/svg">
<g id="#ffffffff">
</g>
<g id="#104978ff">
<path fill="#104978" opacity="1.00" d=" M 217.95 14.01 C 218.54 11.47 221.32 11.01 223.54 11.32 C 225.38 12.33 225.69 14.68 226.63 16.38 C 228.99 22.55 232.25 28.37 234.01 34.76 C 231.99 34.65 229.91 34.75 227.95 34.17 C 227.14 32.89 226.89 31.24 225.77 30.18 C 223.27 29.91 220.73 29.97 218.24 30.24 C 217.18 31.02 216.88 32.42 216.18 33.47 C 215.18 35.81 212.00 34.64 210.01 34.97 C 212.20 27.82 215.09 20.90 217.95 14.01 M 221.80 18.23 C 220.72 20.61 219.85 23.09 219.27 25.64 C 221.01 25.62 222.76 25.55 224.50 25.44 C 223.76 22.98 222.96 20.53 221.80 18.23 Z" />
</g>
<g id="#0e4a79ff">
<path fill="#0e4a79" opacity="1.00" d=" M 237.62 11.54 C 241.78 11.49 246.05 11.59 250.10 12.63 C 253.86 13.49 255.67 18.11 254.34 21.53 C 253.74 23.66 251.50 24.57 249.87 25.75 C 251.39 29.13 253.32 32.30 254.65 35.77 C 252.44 35.55 250.23 35.22 248.03 34.89 C 246.28 31.59 245.80 27.38 242.70 24.97 C 242.02 28.23 241.88 31.56 241.58 34.86 C 240.06 34.84 238.54 34.85 237.04 34.69 C 235.64 33.14 236.57 30.82 236.47 28.95 C 237.16 23.17 236.75 17.30 237.62 11.54 M 242.97 16.49 C 242.87 18.18 242.78 19.87 242.71 21.56 C 244.77 21.65 246.84 21.51 248.86 21.06 C 248.89 19.76 248.92 18.47 248.95 17.18 C 246.96 16.88 244.97 16.61 242.97 16.49 Z" />
<path fill="#0e4a79" opacity="1.00" d=" M 259.77 13.77 C 261.65 13.82 263.53 13.90 265.42 13.99 C 264.85 21.75 263.57 29.43 262.86 37.18 C 260.95 36.99 259.04 36.76 257.15 36.44 C 258.00 28.88 258.98 21.34 259.77 13.77 Z" />
</g>
<g id="#0d4d79ff">
<path fill="#0d4d79" opacity="1.00" d=" M 199.60 13.42 C 201.45 13.24 203.32 13.07 205.18 12.91 C 205.83 20.65 207.28 28.32 207.54 36.09 C 205.73 36.24 203.93 36.39 202.12 36.46 C 201.37 28.77 200.08 21.14 199.60 13.42 Z" />
</g>
<g id="#0d4c7aff">
<path fill="#0d4c7a" opacity="1.00" d=" M 181.59 16.57 C 183.48 16.24 185.37 15.95 187.28 15.69 C 188.37 21.54 188.89 27.57 190.78 33.22 C 193.57 33.00 196.29 32.28 199.05 31.79 C 199.22 33.48 199.39 35.18 199.54 36.87 C 194.89 37.64 190.28 38.65 185.61 39.30 C 184.11 31.75 182.96 24.14 181.59 16.57 Z" />
</g>
<g id="#ffffefff">
</g>
<g id="#064473ff">
<path fill="#064473" opacity="1.00" d=" M 276.35 17.53 C 281.93 16.09 288.95 17.79 291.91 23.12 C 294.64 27.65 293.98 33.71 290.42 37.59 C 284.99 44.30 273.02 42.01 269.51 34.43 C 266.97 28.24 269.52 19.63 276.35 17.53 M 279.40 22.52 C 273.73 24.24 272.52 33.24 278.29 35.67 C 284.50 38.85 290.00 29.67 286.16 24.79 C 284.54 22.93 281.84 21.68 279.40 22.52 Z" />
</g>
<g id="#08497aff">
<path fill="#08497a" opacity="1.00" d=" M 169.66 19.58 C 171.54 19.19 173.43 18.86 175.32 18.55 C 177.18 25.94 179.33 33.24 181.12 40.65 C 179.21 41.12 177.30 41.59 175.39 42.06 C 173.85 34.48 171.57 27.07 169.66 19.58 Z" />
</g>
<g id="#fefff2ff">
</g>
<g id="#fffffeff">
</g>
<g id="#0a4c7eff">
<path fill="#0a4c7e" opacity="1.00" d=" M 147.89 26.90 C 152.14 25.28 156.47 23.42 161.07 23.23 C 164.33 23.04 165.73 26.44 166.76 28.93 C 166.11 29.88 165.43 30.83 164.97 31.89 C 166.89 33.39 169.62 34.42 170.24 37.06 C 171.25 39.80 169.63 42.84 167.19 44.18 C 163.45 46.31 159.25 47.38 155.22 48.79 C 152.51 41.59 150.54 34.13 147.89 26.90 M 154.76 28.89 C 155.01 30.42 155.28 31.95 155.58 33.47 C 158.63 33.46 162.00 32.21 161.43 28.52 C 159.20 28.39 156.96 28.54 154.76 28.89 M 157.02 37.61 C 157.77 39.35 158.54 41.07 159.40 42.76 C 161.99 41.65 165.35 40.43 165.09 36.98 C 162.38 36.37 159.60 36.61 157.02 37.61 Z" />
</g>
<g id="#054b7bff">
<path fill="#054b7b" opacity="1.00" d=" M 298.81 32.06 C 298.32 28.11 302.17 24.58 306.04 25.03 C 310.32 25.12 314.03 27.73 316.40 31.16 C 315.02 31.90 313.64 32.62 312.24 33.30 C 310.27 31.01 306.29 28.25 304.05 31.73 C 306.47 34.92 310.67 36.96 311.54 41.14 C 312.01 45.28 308.06 49.13 303.96 48.94 C 299.45 48.56 295.63 45.62 293.11 42.00 C 294.56 41.19 296.03 40.43 297.51 39.66 C 299.28 42.17 302.81 45.57 305.82 42.71 C 305.22 38.18 298.94 36.84 298.81 32.06 Z" />
</g>
<g id="#fff9e6ff">
</g>
<g id="#054574ff">
<path fill="#054574" opacity="1.00" d=" M 132.38 33.51 C 136.10 32.44 140.48 32.87 143.41 35.61 C 146.69 38.71 148.61 43.48 147.86 47.99 C 146.40 53.67 140.73 57.50 135.06 57.98 C 126.21 58.29 119.69 46.88 124.32 39.37 C 126.21 36.56 129.17 34.54 132.38 33.51 M 132.28 39.24 C 128.44 41.15 127.65 46.40 130.40 49.58 C 132.71 53.53 139.04 53.05 141.00 49.04 C 144.54 43.91 137.97 35.86 132.28 39.24 Z" />
</g>
<g id="#fffef1ff">
</g>
<g id="#114c79ff">
<path fill="#114c79" opacity="1.00" d=" M 333.63 39.70 C 335.60 37.64 338.88 38.95 340.26 41.02 C 339.98 49.17 338.31 57.22 337.74 65.36 C 335.85 64.61 333.95 63.78 332.40 62.43 C 332.06 60.92 332.73 59.36 332.84 57.84 C 330.49 56.53 328.27 55.02 325.83 53.89 C 324.05 53.66 323.05 55.63 321.76 56.51 C 320.09 55.39 317.17 55.48 316.59 53.25 C 322.05 48.47 327.85 44.08 333.63 39.70 M 328.81 50.19 C 330.32 51.13 331.86 52.01 333.43 52.88 C 334.17 50.41 334.63 47.86 334.65 45.28 C 332.62 46.82 330.70 48.49 328.81 50.19 Z" />
</g>
<g id="#0b4975ff">
<path fill="#0b4975" opacity="1.00" d=" M 106.76 48.98 C 108.65 47.13 110.81 45.13 113.48 44.61 C 118.12 50.52 121.99 57.00 126.39 63.10 C 124.89 64.17 123.40 65.25 121.91 66.34 C 119.06 62.20 116.55 57.81 113.26 53.99 C 113.94 59.31 116.01 64.32 116.98 69.57 C 116.14 70.64 114.54 72.01 113.14 71.08 C 108.91 68.46 105.20 65.05 100.90 62.53 C 103.14 67.10 106.55 70.94 109.28 75.21 C 107.86 76.15 106.43 77.08 104.99 77.99 C 100.41 71.84 96.24 65.38 91.64 59.24 C 93.69 57.80 95.75 56.36 97.65 54.72 C 102.51 56.70 106.01 60.89 110.68 63.23 C 109.89 58.34 107.76 53.81 106.76 48.98 Z" />
</g>
<g id="#fffdebff">
<path fill="#fffdeb" opacity="1.00" d=" M 328.81 50.19 C 330.70 48.49 332.62 46.82 334.65 45.28 C 334.63 47.86 334.17 50.41 333.43 52.88 C 331.86 52.01 330.32 51.13 328.81 50.19 Z" />
</g>
<g id="#094a77ff">
<path fill="#094a77" opacity="1.00" d=" M 341.95 62.95 C 342.17 56.77 347.55 50.60 354.03 51.07 C 359.92 51.21 364.96 55.71 366.85 61.12 C 365.27 61.56 363.69 62.05 362.08 62.34 C 360.39 60.59 359.34 58.02 356.96 57.10 C 351.26 54.97 345.03 63.11 349.08 67.89 C 350.42 69.94 353.11 69.97 355.16 70.88 C 357.49 71.29 356.36 74.04 356.59 75.67 C 349.26 76.94 341.39 70.53 341.95 62.95 Z" />
</g>
<g id="#0d4e7eff">
<path fill="#0d4e7e" opacity="1.00" d=" M 356.65 79.84 C 360.91 73.70 365.82 67.94 371.05 62.61 C 375.82 65.51 380.65 69.46 382.29 75.06 C 381.10 77.17 380.05 79.64 377.73 80.73 C 376.09 81.17 374.36 81.02 372.69 81.15 C 371.63 84.55 371.85 88.45 370.19 91.58 C 368.63 90.43 367.22 89.12 365.71 87.92 C 366.39 84.04 367.63 80.17 367.21 76.18 C 364.34 78.00 363.07 81.60 360.10 83.20 C 358.74 82.32 357.49 81.23 356.65 79.84 M 369.22 74.11 C 371.34 75.22 374.11 77.64 376.21 75.07 C 376.87 72.62 374.47 69.95 371.98 69.92 C 370.62 70.99 370.01 72.65 369.22 74.11 Z" />
</g>
<g id="#094a78ff">
<path fill="#094a78" opacity="1.00" d=" M 81.82 67.88 C 83.20 66.63 84.57 65.37 85.94 64.11 C 91.00 69.46 95.97 74.89 100.89 80.35 C 101.50 82.54 98.46 83.60 97.47 85.22 C 91.76 84.20 86.38 81.89 80.66 80.89 C 83.55 84.85 87.38 87.99 90.38 91.86 C 89.00 92.96 87.61 94.06 86.23 95.16 C 81.04 89.47 75.66 83.94 70.56 78.15 C 72.14 76.83 73.68 75.48 75.20 74.09 C 80.80 75.34 86.26 77.17 91.84 78.51 C 88.89 74.61 85.12 71.46 81.82 67.88 Z" />
</g>
<g id="#fffae6ff">
</g>
<g id="#0b4b7bff">
<path fill="#0b4b7b" opacity="1.00" d=" M 372.39 94.00 C 377.72 89.11 382.65 83.76 388.07 78.97 C 389.38 77.98 390.42 79.91 391.37 80.55 C 394.25 83.78 397.94 86.52 399.56 90.67 C 398.39 91.25 397.21 91.78 396.01 92.26 C 393.57 90.27 391.59 87.78 389.14 85.80 C 388.51 86.21 387.25 87.05 386.62 87.47 C 387.92 90.58 390.43 92.88 392.70 95.29 C 391.75 96.40 390.68 97.41 389.53 98.32 C 387.23 95.94 385.11 93.24 382.04 91.79 C 381.48 92.95 379.80 94.05 380.73 95.46 C 382.52 98.14 385.08 100.20 386.97 102.82 C 385.86 103.80 384.76 104.77 383.65 105.74 C 379.69 102.04 375.98 98.07 372.39 94.00 Z" />
</g>
<g id="#004879ff">
<path fill="#004879" opacity="1.00" d=" M 62.06 87.96 C 63.31 86.53 64.55 85.08 65.79 83.64 C 71.65 88.69 77.31 93.96 83.27 98.89 C 82.05 100.32 80.84 101.75 79.64 103.20 C 73.69 98.23 67.80 93.17 62.06 87.96 Z" />
</g>
<g id="#084a77ff">
<path fill="#084a77" opacity="1.00" d=" M 385.62 108.62 C 391.56 103.72 398.10 99.62 404.16 94.89 C 407.86 99.96 412.64 105.21 412.52 111.88 C 411.14 118.70 402.90 123.66 396.36 120.53 C 391.44 118.00 388.86 112.83 385.62 108.62 M 392.76 110.16 C 394.62 112.57 396.61 115.58 399.96 115.82 C 402.93 115.73 405.67 113.73 406.80 111.01 C 407.54 108.03 405.45 105.42 404.41 102.81 C 399.93 104.13 396.67 107.77 392.76 110.16 Z" />
</g>
<g id="#054a7dff">
<path fill="#054a7d" opacity="1.00" d=" M 46.87 112.01 C 45.71 106.46 50.08 100.70 55.58 99.81 C 55.98 101.11 56.38 102.42 56.76 103.73 C 54.21 105.43 51.22 107.46 51.61 111.00 C 55.06 111.40 57.44 108.74 60.30 107.38 C 61.96 106.52 63.89 106.89 65.68 106.86 C 67.31 108.68 69.47 110.39 69.69 113.02 C 69.74 118.54 65.26 123.52 59.89 124.48 C 59.48 122.99 59.09 121.51 58.72 120.01 C 61.01 118.85 63.13 117.38 64.98 115.59 C 64.86 114.92 64.63 113.60 64.51 112.93 C 59.65 111.32 56.82 117.85 52.01 116.92 C 49.77 116.09 47.31 114.56 46.87 112.01 Z" />
</g>
<g id="#658ca3ff">
<path fill="#658ca3" opacity="1.00" d=" M 447.24 100.27 C 447.81 100.81 447.81 100.81 447.24 100.27 Z" />
</g>
<g id="#fffefaff">
</g>
<g id="#0a4b7eff">
<path fill="#0a4b7e" opacity="1.00" d=" M 33.04 130.16 C 35.66 125.77 37.63 120.92 40.91 116.97 C 42.56 116.60 43.59 118.37 44.88 119.09 C 43.21 122.15 41.44 125.18 40.31 128.49 C 41.54 128.81 42.77 129.12 44.00 129.41 C 45.40 126.88 46.77 124.34 48.07 121.76 C 49.45 122.26 50.81 122.79 52.18 123.32 C 50.77 126.45 49.09 129.44 47.53 132.49 C 48.89 132.94 50.19 133.96 51.68 133.77 C 53.85 131.19 55.05 127.97 56.93 125.19 C 58.30 125.99 59.67 126.78 61.04 127.56 C 58.51 132.21 56.08 136.96 53.06 141.31 C 46.01 138.42 39.87 133.60 33.04 130.16 Z" />
</g>
<g id="#034a80ff">
<path fill="#034a80" opacity="1.00" d=" M 399.54 129.16 C 406.29 125.29 412.94 121.25 419.83 117.64 C 420.71 119.18 421.59 120.73 422.48 122.27 C 416.48 126.12 410.29 129.65 404.11 133.19 C 401.54 134.89 400.84 130.57 399.54 129.16 Z" />
</g>
<g id="#0a4e7dff">
<path fill="#0a4e7d" opacity="1.00" d=" M 420.19 127.55 C 421.54 126.82 422.70 125.29 424.34 125.34 C 427.44 130.90 430.89 136.38 432.91 142.45 C 431.37 142.74 429.82 143.27 428.25 142.95 C 426.93 141.56 426.86 137.46 424.21 138.93 C 419.26 141.34 414.65 144.47 409.48 146.43 C 408.61 144.76 407.71 143.11 406.81 141.47 C 412.25 138.64 417.77 135.94 423.12 132.93 C 422.12 131.15 421.14 129.35 420.19 127.55 Z" />
</g>
<g id="#054b7fff">
<path fill="#054b7f" opacity="1.00" d=" M 31.16 134.09 C 32.52 134.66 33.90 135.19 35.16 135.96 C 34.76 138.13 33.67 140.08 32.77 142.07 C 38.27 144.54 43.72 147.13 49.33 149.35 C 48.54 151.24 47.62 153.08 46.58 154.85 C 41.31 152.13 35.93 149.64 30.51 147.24 C 29.63 148.94 28.82 150.67 28.05 152.41 C 26.46 152.05 24.87 151.66 23.29 151.24 C 25.57 145.37 28.38 139.73 31.16 134.09 Z" />
</g>
<g id="#0d4a77ff">
<path fill="#0d4a77" opacity="1.00" d=" M 411.48 150.65 C 419.88 150.75 428.28 150.62 436.67 151.00 C 437.31 152.53 437.97 154.05 438.64 155.57 C 433.23 161.94 426.82 167.34 420.88 173.19 C 419.87 171.27 419.03 169.28 418.44 167.21 C 419.59 166.20 420.75 165.18 421.88 164.14 C 420.84 161.48 419.76 158.83 418.60 156.21 C 417.02 156.16 415.44 156.14 413.87 156.13 C 413.06 154.31 412.26 152.48 411.48 150.65 M 423.96 155.67 C 424.34 157.42 424.77 159.16 425.30 160.88 C 427.62 159.49 429.58 157.61 431.30 155.54 C 428.85 155.54 426.40 155.59 423.96 155.67 Z" />
</g>
<g id="#fff9e5ff">
</g>
<g id="#0e4e7eff">
<path fill="#0e4e7e" opacity="1.00" d=" M 21.40 155.60 C 28.87 157.69 36.22 160.23 43.52 162.88 C 42.69 165.19 42.68 168.87 39.63 169.38 C 34.82 170.73 29.80 171.25 25.04 172.81 C 29.33 175.02 34.09 176.00 38.70 177.28 C 38.08 179.06 37.44 180.84 36.81 182.62 C 29.61 180.44 22.48 178.00 15.45 175.34 C 14.69 173.16 16.71 171.17 17.28 169.13 C 22.49 167.62 27.91 167.04 33.17 165.73 C 29.04 163.30 24.36 162.10 19.94 160.32 C 20.43 158.75 20.91 157.17 21.40 155.60 Z" />
</g>
<g id="#0c4b77ff">
<path fill="#0c4b77" opacity="1.00" d=" M 421.12 174.97 C 428.69 173.05 436.24 171.04 443.94 169.73 C 444.86 175.07 446.95 180.48 445.73 185.94 C 443.64 193.78 432.00 196.18 426.76 190.15 C 423.09 185.93 422.61 180.13 421.12 174.97 M 426.99 179.27 C 428.23 182.41 429.17 186.87 433.10 187.52 C 435.57 187.81 438.55 187.19 439.92 184.89 C 441.57 182.51 440.87 179.44 440.95 176.73 C 436.19 176.83 431.57 178.08 426.99 179.27 Z" />
</g>
<g id="#fffefbff">
</g>
<g id="#0d4b7dff">
<path fill="#0d4b7d" opacity="1.00" d=" M 13.16 182.77 C 14.80 182.86 16.44 182.98 18.08 183.10 C 17.52 186.26 16.68 189.40 16.59 192.62 C 17.45 193.85 19.21 193.51 20.50 193.88 C 20.94 190.88 21.41 187.88 21.94 184.89 C 23.45 184.94 24.97 184.99 26.49 185.05 C 26.02 188.43 25.25 191.76 24.80 195.14 C 26.21 195.24 27.63 195.29 29.04 195.29 C 30.37 192.09 30.44 188.52 31.22 185.17 C 32.80 185.40 34.38 185.66 35.97 185.92 C 35.23 191.32 34.21 196.68 32.89 201.97 C 25.49 200.47 18.04 199.21 10.61 197.83 C 11.04 192.74 12.40 187.80 13.16 182.77 Z" />
</g>
<g id="#064674ff">
<path fill="#064674" opacity="1.00" d=" M 435.22 197.34 C 439.33 196.31 444.42 196.13 447.70 199.28 C 452.19 203.95 453.72 212.11 449.34 217.35 C 444.54 223.55 433.73 223.10 429.71 216.27 C 425.20 210.05 427.64 199.83 435.22 197.34 M 438.55 202.79 C 434.57 203.39 431.43 207.75 433.29 211.64 C 435.29 217.20 444.54 216.70 446.19 211.14 C 448.43 206.57 443.21 201.35 438.55 202.79 Z" />
</g>
<g id="#054677ff">
<path fill="#054677" opacity="1.00" d=" M 11.03 204.97 C 12.88 204.45 13.92 206.18 14.86 207.44 C 14.54 210.30 12.02 212.86 13.29 215.86 C 14.78 220.83 21.97 222.14 25.38 218.42 C 27.25 216.43 27.12 213.54 27.23 211.00 C 25.90 210.86 24.58 210.73 23.26 210.62 C 23.65 213.69 20.59 216.84 18.11 213.97 C 18.05 210.96 18.27 207.94 18.80 204.98 C 22.97 205.08 27.10 205.75 31.25 206.04 C 32.47 211.41 33.01 217.78 29.37 222.37 C 25.07 227.93 15.73 228.15 11.14 222.83 C 6.61 217.99 7.14 210.02 11.03 204.97 Z" />
</g>
<g id="#044274ff">
<path fill="#044274" opacity="1.00" d=" M 431.09 224.57 C 432.56 225.30 433.99 226.12 435.41 226.95 C 434.42 230.24 432.41 234.34 435.91 236.91 C 438.97 234.53 439.21 230.42 441.11 227.30 C 443.51 224.04 448.98 224.58 451.25 227.73 C 453.30 230.49 453.45 234.19 452.71 237.43 C 452.23 238.99 451.63 241.70 449.41 240.80 C 448.61 240.00 447.93 239.11 447.23 238.24 C 448.60 235.97 448.82 233.44 448.05 230.92 C 447.34 230.91 445.91 230.89 445.19 230.87 C 443.79 234.15 443.11 237.91 440.64 240.61 C 437.26 243.37 431.96 241.55 430.20 237.80 C 427.89 233.60 429.58 228.72 431.09 224.57 Z" />
</g>
<g id="#104c7cff">
<path fill="#104c7c" opacity="1.00" d=" M 8.98 237.03 C 16.09 233.52 23.46 230.51 30.84 227.63 C 30.68 229.78 30.84 232.00 30.18 234.08 C 28.91 235.10 26.27 234.99 26.26 237.06 C 26.05 239.36 26.01 241.71 26.36 244.00 C 27.46 245.24 29.38 245.37 30.82 246.11 C 30.90 248.16 30.98 250.22 31.04 252.27 C 25.00 249.92 18.98 247.51 12.94 245.13 C 11.08 244.33 9.06 243.59 7.68 242.04 C 7.66 240.37 6.94 237.81 8.98 237.03 M 14.60 239.73 C 16.74 241.26 19.15 242.36 21.70 243.01 C 21.66 241.17 21.58 239.33 21.45 237.50 C 19.14 238.16 16.85 238.90 14.60 239.73 Z" />
</g>
<g id="#fef7e7ff">
</g>
<g id="#aad2e3ff">
<path fill="#aad2e3" opacity="1.00" d=" M 21.24 288.26 C 26.36 285.61 33.31 289.05 34.53 294.64 C 36.15 300.20 31.76 306.50 25.97 306.88 C 20.90 307.13 16.25 302.89 15.47 297.97 C 15.07 293.91 17.83 290.17 21.24 288.26 Z" />
</g>
<g id="#a8d1e3ff">
<path fill="#a8d1e3" opacity="1.00" d=" M 432.24 288.25 C 439.09 284.65 448.19 292.26 445.54 299.65 C 443.93 305.68 435.99 309.32 430.94 304.90 C 424.69 301.20 425.73 291.08 432.24 288.25 Z" />
</g>
<g id="#084877ff">
<path fill="#084877" opacity="1.00" d=" M 29.03 332.00 C 35.74 328.35 42.16 324.14 49.01 320.78 C 51.96 325.46 55.06 330.42 55.78 336.01 C 55.12 343.58 45.54 349.34 38.77 345.25 C 33.94 342.22 31.80 336.70 29.03 332.00 M 36.37 334.90 C 37.37 337.25 39.13 339.33 41.34 340.63 C 44.88 341.89 48.79 339.22 50.09 335.94 C 50.45 333.04 49.13 330.16 47.37 327.92 C 43.85 330.44 39.26 331.67 36.37 334.90 Z" />
</g>
<g id="#074977ff">
<path fill="#074977" opacity="1.00" d=" M 396.18 352.68 C 393.69 345.07 399.92 335.88 408.01 335.87 C 416.16 335.64 423.00 345.06 419.70 352.66 C 417.70 357.23 413.33 361.54 408.00 361.17 C 403.20 361.31 399.23 357.94 396.41 354.38 C 396.02 354.66 395.23 355.20 394.84 355.47 C 394.13 356.95 393.36 358.40 392.63 359.88 C 396.48 362.49 400.14 365.37 403.84 368.18 C 404.71 369.03 406.21 369.54 406.38 370.92 C 405.60 372.31 404.66 373.59 403.76 374.90 C 398.44 371.98 394.11 367.64 389.14 364.20 C 387.85 365.57 386.61 366.99 385.41 368.44 C 383.87 367.87 382.35 367.25 380.84 366.62 C 384.19 361.77 387.87 357.15 391.54 352.53 C 393.09 350.57 394.90 352.92 395.27 354.61 C 395.57 353.96 395.88 353.32 396.18 352.68 M 405.24 342.30 C 401.92 343.86 399.57 348.49 402.18 351.67 C 404.50 355.85 411.88 356.79 413.98 351.95 C 417.52 346.77 410.54 339.89 405.24 342.30 Z" />
</g>
<g id="#004981ff">
<path fill="#004981" opacity="1.00" d=" M 420.88 336.84 C 422.49 336.15 424.15 334.94 425.94 335.85 C 427.80 337.41 427.38 341.06 425.04 341.99 C 423.37 342.50 422.20 341.13 421.01 340.26 C 420.98 339.41 420.92 337.69 420.88 336.84 Z" />
</g>
<g id="#004778ff">
<path fill="#004778" opacity="1.00" d=" M 56.78 343.47 C 57.93 342.52 59.06 341.57 60.21 340.63 C 63.39 344.99 67.07 349.20 68.94 354.34 C 67.72 354.91 66.51 355.49 65.29 356.06 C 63.53 353.58 61.87 351.04 60.19 348.53 C 59.06 346.83 57.92 345.15 56.78 343.47 Z" />
</g>
<g id="#fffffdff">
</g>
<g id="#0d4f82ff">
<path fill="#0d4f82" opacity="1.00" d=" M 41.53 353.78 C 46.73 350.52 51.71 346.92 56.78 343.47 C 57.92 345.15 59.06 346.83 60.19 348.53 C 58.70 348.88 56.43 348.70 56.90 350.91 C 58.07 353.67 60.53 355.83 61.11 358.84 C 60.27 359.82 58.65 360.68 57.44 359.88 C 55.56 357.58 54.02 355.03 52.07 352.80 C 51.02 353.80 49.97 354.80 48.94 355.83 C 50.84 358.71 52.74 361.60 54.67 364.47 C 53.44 365.42 52.18 366.34 50.92 367.26 C 47.55 362.94 44.64 358.29 41.53 353.78 Z" />
</g>
<g id="#04497aff">
<path fill="#04497a" opacity="1.00" d=" M 52.77 369.64 C 58.92 365.04 64.93 360.26 71.06 355.62 C 72.26 357.06 73.44 358.53 74.62 360.00 C 70.15 364.02 64.95 367.13 60.53 371.20 C 61.98 373.69 63.96 375.82 65.57 378.20 C 64.39 379.29 63.21 380.39 62.03 381.48 C 58.93 377.54 55.86 373.58 52.77 369.64 Z" />
</g>
<g id="#0a4e7eff">
<path fill="#0a4e7e" opacity="1.00" d=" M 373.73 373.64 C 375.17 372.17 376.28 368.73 378.86 369.97 C 386.22 372.47 393.45 375.36 400.77 377.96 C 399.31 379.64 397.80 381.27 396.23 382.86 C 394.84 382.21 393.55 381.22 392.00 381.06 C 389.80 383.01 387.99 385.36 386.23 387.71 C 386.87 389.10 387.59 390.48 388.04 391.96 C 386.81 393.54 385.25 394.82 383.79 396.18 C 380.97 388.45 377.25 381.07 373.73 373.64 M 381.05 376.10 C 381.41 378.62 382.63 380.87 383.94 383.01 C 385.18 381.77 386.39 380.50 387.50 379.14 C 385.43 377.94 383.30 376.88 381.05 376.10 Z" />
</g>
<g id="#0c4c7aff">
<path fill="#0c4c7a" opacity="1.00" d=" M 68.35 388.01 C 73.72 382.69 78.96 377.24 84.12 371.72 C 87.93 374.96 91.56 378.44 94.95 382.11 C 95.64 383.95 92.84 384.56 91.91 385.65 L 91.49 385.23 C 89.46 383.11 87.31 381.11 85.04 379.26 C 84.00 380.10 82.97 380.94 81.94 381.80 C 83.20 383.06 84.46 384.34 85.74 385.58 C 86.65 386.45 87.57 387.31 88.48 388.18 C 87.84 389.35 87.18 390.52 86.49 391.68 C 83.65 389.83 81.18 387.50 78.56 385.36 C 77.76 386.24 76.93 387.11 76.22 388.09 C 77.43 390.90 79.92 392.84 82.11 394.87 L 83.33 395.93 C 82.26 397.10 81.19 398.29 79.97 399.31 C 75.94 395.72 72.04 391.96 68.35 388.01 Z" />
</g>
<g id="#fefce1ff">
</g>
<g id="#034a79ff">
<path fill="#034a79" opacity="1.00" d=" M 363.72 382.96 C 365.13 381.60 366.55 380.25 367.98 378.91 C 371.64 383.63 376.10 387.80 378.99 393.06 C 381.81 398.43 376.90 404.30 371.92 406.03 C 368.66 407.47 365.13 405.58 362.88 403.21 C 359.50 399.57 356.34 395.73 353.12 391.94 C 354.68 390.85 356.00 389.13 357.98 388.80 C 361.47 392.67 364.19 397.34 368.39 400.51 C 371.10 402.01 373.17 398.95 374.60 397.10 C 372.18 391.56 367.36 387.66 363.72 382.96 Z" />
</g>
<g id="#fffae8ff">
</g>
<g id="#fff7eaff">
</g>
<g id="#054c7fff">
<path fill="#054c7f" opacity="1.00" d=" M 91.89 395.91 C 89.15 392.32 91.89 387.05 96.03 386.20 C 100.78 385.32 105.44 388.94 107.22 393.15 C 107.59 395.11 105.41 395.80 104.07 396.52 C 102.14 394.36 100.61 390.22 97.04 391.13 C 95.57 395.50 100.73 398.61 100.79 402.91 C 99.97 406.73 96.02 409.87 92.04 408.90 C 87.43 407.48 83.64 403.53 82.62 398.78 C 83.14 398.63 84.17 398.34 84.68 398.19 C 88.71 397.53 89.32 402.68 92.44 404.21 C 93.15 403.80 94.57 402.97 95.28 402.56 C 94.29 400.27 93.10 398.08 91.89 395.91 Z" />
</g>
<g id="#0b4c78ff">
<path fill="#0b4c78" opacity="1.00" d=" M 346.71 396.90 C 348.14 395.74 349.60 394.61 351.09 393.51 C 354.41 398.00 357.95 402.36 360.86 407.13 C 362.18 409.31 363.23 412.27 361.57 414.58 C 359.89 417.51 356.47 418.54 353.38 419.21 C 351.81 420.80 350.31 422.72 348.05 423.33 C 346.36 423.40 345.39 421.62 344.09 420.85 C 341.65 422.13 339.17 423.41 336.96 425.08 C 336.76 426.82 336.99 428.58 337.04 430.34 C 335.28 431.27 333.49 432.14 331.67 432.96 C 331.33 425.54 329.48 418.31 328.79 410.93 C 327.59 407.63 332.73 404.47 335.10 406.99 C 340.76 410.95 345.91 415.67 352.02 418.97 C 351.65 418.51 350.92 417.60 350.55 417.14 C 350.71 416.37 351.03 414.83 351.20 414.06 C 353.20 413.51 355.22 413.01 357.24 412.49 C 354.72 406.69 350.10 402.18 346.71 396.90 M 334.46 413.02 C 334.61 415.51 334.94 417.99 335.46 420.44 C 336.98 419.71 338.50 418.99 340.02 418.26 C 338.45 416.23 336.63 414.39 334.46 413.02 Z" />
</g>
<g id="#07497aff">
<path fill="#07497a" opacity="1.00" d=" M 107.47 393.77 C 113.92 395.52 118.43 400.98 124.11 404.27 C 123.41 405.52 122.89 406.93 121.85 407.96 C 119.63 407.50 117.89 405.81 115.88 404.82 C 112.78 409.84 109.16 414.50 105.72 419.29 C 104.09 418.31 102.46 417.33 100.82 416.38 C 104.11 411.26 107.63 406.28 111.57 401.63 C 110.04 400.34 108.43 399.16 106.81 397.99 C 107.03 396.58 107.26 395.17 107.47 393.77 Z" />
</g>
<g id="#0d4c7bff">
<path fill="#0d4c7b" opacity="1.00" d=" M 127.61 407.65 C 129.50 406.00 131.46 408.67 133.27 409.25 C 132.74 417.37 131.36 425.48 129.52 433.39 C 130.55 433.28 131.59 433.19 132.63 433.10 C 135.09 426.45 138.17 420.05 141.17 413.63 C 146.65 415.99 153.34 417.92 156.20 423.67 C 159.77 430.93 153.30 440.81 145.06 439.65 C 137.87 438.46 131.71 434.15 124.91 431.72 C 124.90 429.84 124.92 427.96 124.93 426.09 C 122.56 424.72 120.22 423.29 117.91 421.82 C 116.59 422.79 115.29 423.79 114.00 424.82 C 112.32 423.84 110.59 422.94 108.84 422.10 C 114.35 416.40 121.46 412.60 127.61 407.65 M 122.00 418.31 C 123.18 419.84 124.80 420.85 126.65 421.39 C 126.96 419.03 127.16 416.65 127.26 414.28 C 125.38 415.44 123.64 416.82 122.00 418.31 M 138.72 432.64 C 141.33 433.53 144.14 434.96 146.94 434.04 C 150.42 432.83 152.06 428.48 150.84 425.13 C 149.45 423.04 147.34 421.34 144.94 420.59 C 141.92 423.98 140.66 428.59 138.72 432.64 Z" />
</g>
<g id="#0c4a76ff">
<path fill="#0c4a76" opacity="1.00" d=" M 315.55 415.26 C 317.24 414.35 318.94 413.45 320.68 412.63 C 323.54 419.86 327.21 426.74 330.17 433.93 C 328.19 434.76 326.28 435.87 324.14 436.22 C 319.50 433.57 315.54 429.79 310.61 427.63 C 312.02 432.10 314.57 436.09 316.31 440.42 C 314.68 441.14 313.06 441.88 311.44 442.60 C 308.08 435.57 304.73 428.53 301.57 421.41 C 303.54 420.73 305.44 419.87 307.27 418.89 C 312.16 421.67 316.39 425.52 321.51 427.91 C 319.82 423.56 317.69 419.40 315.55 415.26 Z" />
</g>
<g id="#fff7e4ff">
</g>
<g id="#fff9dfff">
</g>
<g id="#fffffbff">
</g>
<g id="#064676ff">
<path fill="#064676" opacity="1.00" d=" M 162.50 425.74 C 168.10 423.39 175.61 424.82 179.16 430.03 C 182.41 434.67 181.74 441.56 177.73 445.56 C 171.87 452.09 159.56 449.19 156.87 440.94 C 155.22 435.43 157.34 428.63 162.50 425.74 M 166.42 430.39 C 161.32 432.63 160.43 440.81 165.84 443.19 C 170.09 445.56 174.91 441.40 175.05 437.05 C 176.18 432.47 170.47 428.32 166.42 430.39 Z" />
</g>
<g id="#0f4c79ff">
<path fill="#0f4c79" opacity="1.00" d=" M 287.94 425.76 C 289.74 425.19 291.62 424.89 293.52 424.78 C 298.79 430.83 304.14 436.81 309.44 442.84 C 307.50 443.56 305.55 444.27 303.60 444.95 C 302.49 443.65 301.36 442.36 300.23 441.08 C 297.91 442.21 295.43 443.01 293.13 444.17 C 292.17 445.47 292.56 447.28 292.11 448.78 C 290.47 449.91 288.58 450.58 286.75 451.34 C 287.14 442.81 286.48 434.20 287.94 425.76 M 292.51 439.32 C 293.99 438.91 295.67 438.91 296.94 437.92 C 296.22 436.02 295.17 434.25 293.91 432.68 C 290.90 433.04 292.79 437.18 292.51 439.32 Z" />
</g>
<g id="#094979ff">
<path fill="#094979" opacity="1.00" d=" M 274.03 429.18 C 275.93 428.78 277.82 428.35 279.73 427.96 C 280.78 433.66 283.14 439.15 283.19 445.01 C 283.27 451.48 275.29 454.96 269.79 453.21 C 266.09 452.30 264.39 448.48 263.66 445.09 C 262.71 440.82 261.18 436.67 260.73 432.29 C 262.56 431.98 264.39 431.69 266.23 431.40 C 267.51 436.73 268.04 442.42 270.72 447.29 C 272.31 449.48 275.18 447.65 277.16 447.00 C 278.02 440.88 275.25 435.07 274.03 429.18 Z" />
</g>
<g id="#0b4774ff">
<path fill="#0b4774" opacity="1.00" d=" M 191.34 430.91 C 196.33 431.42 201.56 431.60 206.18 433.75 C 213.78 437.59 213.08 450.07 205.70 453.76 C 200.39 456.18 194.48 454.50 188.97 453.88 C 189.32 446.18 190.89 438.60 191.34 430.91 M 195.05 449.81 C 197.89 449.81 201.11 450.35 203.58 448.59 C 205.95 446.14 206.15 442.36 204.85 439.34 C 202.44 437.71 199.71 436.69 196.79 436.43 C 195.95 440.85 195.24 445.31 195.05 449.81 Z" />
</g>
<g id="#044073ff">
<path fill="#044073" opacity="1.00" d=" M 242.46 436.40 C 246.28 432.10 252.64 432.48 257.79 433.33 C 258.79 434.63 258.86 436.31 259.18 437.85 C 255.65 439.15 251.82 436.34 248.55 438.71 C 243.48 441.62 244.69 450.18 250.33 451.62 C 253.31 452.76 256.32 451.02 257.19 448.07 C 255.32 447.42 253.37 447.03 251.48 446.44 C 251.18 445.34 250.94 444.23 250.76 443.12 C 253.93 442.52 257.12 442.08 260.34 441.80 C 261.05 446.03 261.59 450.35 261.20 454.65 C 256.47 456.35 251.04 458.20 246.23 455.73 C 239.02 452.61 236.92 441.99 242.46 436.40 Z" />
</g>
<g id="#fcfde8ff">
</g>
<g id="#0b4976ff">
<path fill="#0b4976" opacity="1.00" d=" M 213.86 456.98 C 214.02 449.28 214.30 441.58 214.59 433.89 C 219.79 433.98 224.99 434.02 230.18 434.38 C 230.11 435.95 230.04 437.53 229.99 439.11 C 226.57 439.00 223.15 438.97 219.73 439.09 C 219.71 440.38 219.71 441.68 219.73 442.98 C 222.83 443.08 225.93 443.12 229.04 443.09 C 229.07 444.66 229.09 446.24 229.11 447.82 C 225.92 447.72 222.73 447.65 219.54 447.66 C 219.44 449.18 219.35 450.70 219.27 452.23 C 217.62 451.20 216.28 449.77 214.97 448.37 C 215.19 450.74 215.37 453.11 215.53 455.50 C 219.80 455.96 224.11 456.03 228.40 455.68 C 228.50 455.16 228.71 454.14 228.82 453.63 C 225.95 453.30 223.08 452.97 220.24 452.43 C 223.51 452.43 226.78 452.44 230.04 452.65 C 230.02 454.14 230.01 455.64 229.99 457.14 C 224.62 457.14 219.24 457.03 213.86 456.98 M 219.11 444.27 C 219.45 445.10 219.78 445.95 220.12 446.79 C 222.69 446.84 225.27 446.88 227.84 446.91 C 227.84 446.24 227.82 444.92 227.81 444.26 C 224.91 444.23 222.01 444.23 219.11 444.27 Z" />
</g>
<g id="#0d5289ff">
<path fill="#0d5289" opacity="1.00" d=" M 219.11 444.27 C 222.01 444.23 224.91 444.23 227.81 444.26 C 227.82 444.92 227.84 446.24 227.84 446.91 C 225.27 446.88 222.69 446.84 220.12 446.79 C 219.78 445.95 219.45 445.10 219.11 444.27 Z" />
</g>
<g id="#044b7aff">
<path fill="#044b7a" opacity="1.00" d=" M 214.97 448.37 C 216.28 449.77 217.62 451.20 219.27 452.23 L 220.24 452.43 C 223.08 452.97 225.95 453.30 228.82 453.63 C 228.71 454.14 228.50 455.16 228.40 455.68 C 224.11 456.03 219.80 455.96 215.53 455.50 C 215.37 453.11 215.19 450.74 214.97 448.37 Z" />
</g>
</svg>
