<?xml version="1.0" encoding="UTF-8" ?>
<!DOCTYPE svg PUBLIC "-//W3C//DTD SVG 1.1//EN" "http://www.w3.org/Graphics/SVG/1.1/DTD/svg11.dtd">
<svg width="520pt" height="516pt" viewBox="0 0 520 516" version="1.1" xmlns="http://www.w3.org/2000/svg">
<g id="#ffffffff">
<path fill="#ffffff" opacity="1.00" d=" M 245.41 7.43 C 252.24 6.51 259.14 7.23 266.00 6.96 C 271.71 6.71 277.32 8.08 283.03 8.10 C 338.90 13.14 393.10 37.44 433.34 76.62 C 435.54 78.41 437.85 80.12 439.57 82.42 C 443.39 87.56 448.61 91.45 452.38 96.65 C 460.94 106.33 467.96 117.20 474.92 128.05 C 479.25 136.10 484.50 143.69 487.77 152.28 C 491.70 160.03 494.47 168.29 497.64 176.36 C 504.24 196.95 509.15 218.24 510.25 239.89 C 511.55 247.53 510.80 255.29 511.04 263.00 C 510.02 301.62 500.27 340.07 482.27 374.30 C 472.67 391.45 461.79 408.00 448.74 422.74 C 443.44 427.46 439.77 433.73 434.12 438.09 C 431.09 440.37 428.44 443.08 425.71 445.70 C 417.42 452.86 408.92 459.81 399.60 465.60 C 387.80 474.05 374.63 480.23 361.67 486.64 C 345.54 493.56 328.85 499.31 311.58 502.60 C 300.22 504.90 288.73 506.92 277.11 507.24 C 268.47 508.63 259.69 507.78 250.98 508.02 C 239.55 506.95 228.02 506.66 216.74 504.25 C 168.20 495.70 122.00 472.84 86.66 438.37 C 83.58 436.12 80.88 433.42 78.62 430.34 C 61.53 412.83 47.22 392.58 36.25 370.71 C 29.99 359.61 25.77 347.55 21.38 335.63 C 15.88 317.85 11.73 299.59 10.10 281.03 C 9.98 274.66 8.55 268.39 8.98 262.00 C 8.50 241.90 11.00 221.84 15.18 202.20 C 20.47 181.06 27.33 160.08 38.00 140.99 C 46.43 124.22 57.40 108.83 69.52 94.54 C 72.50 90.56 76.41 87.43 79.62 83.65 C 82.92 79.29 87.65 76.34 91.25 72.25 C 133.14 33.75 188.68 10.70 245.41 7.43 M 252.84 110.81 C 226.14 131.23 199.32 151.48 172.67 171.97 C 155.81 184.61 139.10 197.46 122.34 210.22 C 122.35 260.37 122.37 310.51 122.35 360.65 C 138.76 360.62 155.18 360.48 171.59 360.61 C 196.06 360.59 220.52 360.57 244.99 360.59 C 296.96 360.50 348.94 360.45 400.92 360.64 C 400.45 310.50 400.48 260.37 400.88 210.23 C 389.15 201.23 377.34 192.34 365.61 183.34 C 362.54 181.02 359.61 178.49 356.23 176.65 C 356.14 175.76 355.04 175.47 354.52 174.86 C 335.13 160.33 316.11 145.29 296.57 130.96 C 286.46 122.83 275.87 115.30 265.69 107.24 C 264.25 106.35 262.86 104.88 261.07 104.93 C 257.93 106.26 255.55 108.81 252.84 110.81 Z" />
<path fill="#ffffff" opacity="1.00" d=" M 315.05 242.03 C 326.58 229.97 347.15 230.20 359.98 240.10 C 357.43 243.16 355.05 246.39 352.23 249.20 C 351.11 250.59 349.72 248.79 348.61 248.34 C 343.52 244.78 336.45 243.71 330.90 246.86 C 319.67 252.52 318.75 270.93 329.37 277.64 C 334.76 281.21 341.55 280.31 347.58 279.38 C 347.62 275.87 347.57 272.36 347.67 268.86 C 344.03 268.72 340.29 269.32 336.73 268.37 C 336.46 264.71 336.72 261.04 336.69 257.38 C 343.48 257.51 350.28 257.58 357.07 257.45 C 357.79 257.44 359.24 257.41 359.96 257.39 C 360.21 267.45 359.75 277.53 360.34 287.58 C 348.38 292.94 333.58 294.65 321.62 288.42 C 305.44 279.73 302.29 254.97 315.05 242.03 Z" />
<path fill="#ffffff" opacity="1.00" d=" M 186.61 234.58 C 190.41 234.44 194.21 234.28 198.00 233.98 C 198.88 234.59 199.77 235.20 200.64 235.83 C 208.25 254.20 215.95 272.54 223.47 290.94 C 218.37 291.03 213.26 291.03 208.15 290.95 C 206.60 287.32 205.15 283.65 203.82 279.94 C 196.56 280.00 189.30 279.84 182.04 279.91 C 180.74 283.67 179.35 287.40 177.89 291.10 C 177.29 291.11 176.10 291.13 175.50 291.13 C 171.33 291.10 167.16 291.00 162.99 290.79 C 170.79 272.02 178.70 253.31 186.61 234.58 M 192.33 250.95 C 190.54 257.07 188.28 263.04 186.00 268.99 C 190.68 268.99 195.36 269.04 200.04 268.96 C 197.83 263.09 195.50 257.26 193.66 251.27 C 193.33 251.19 192.66 251.03 192.33 250.95 Z" />
<path fill="#ffffff" opacity="1.00" d=" M 270.16 234.34 C 274.58 234.42 279.00 234.41 283.42 234.40 C 291.37 253.06 298.78 271.96 306.95 290.53 C 302.09 291.23 297.12 291.18 292.24 290.80 C 289.41 288.04 288.80 283.64 287.44 280.02 C 280.06 279.87 272.68 279.81 265.30 279.92 C 264.09 283.59 262.75 287.23 261.52 290.89 C 256.64 291.00 251.76 291.08 246.89 290.90 C 246.89 290.38 246.90 289.35 246.90 288.84 C 254.54 271.94 261.34 254.66 268.60 237.60 C 269.10 236.50 269.63 235.42 270.16 234.34 M 269.59 268.98 C 274.18 269.02 278.77 269.03 283.36 268.96 C 281.04 262.80 278.75 256.62 276.79 250.33 C 273.65 256.22 271.74 262.68 269.59 268.98 Z" />
<path fill="#ffffff" opacity="1.00" d=" M 228.01 234.67 C 232.72 234.53 237.43 234.49 242.14 234.45 C 241.68 253.30 242.18 272.17 241.90 291.03 C 241.18 291.03 239.75 291.03 239.03 291.03 C 235.39 291.00 231.74 291.01 228.10 290.91 C 227.87 279.36 228.11 267.80 227.92 256.24 C 228.00 249.05 228.02 241.86 228.01 234.67 Z" />
</g>
<g id="#7795aeff">
<path fill="#7795ae" opacity="1.00" d=" M 245.41 4.43 C 252.23 3.51 259.13 4.23 265.99 3.96 C 271.38 3.69 276.66 4.98 282.02 5.05 C 322.99 8.44 363.05 22.13 397.57 44.45 C 411.48 53.17 424.04 63.83 436.26 74.74 C 455.50 93.66 472.08 115.44 484.68 139.33 C 501.29 170.59 511.24 205.41 513.35 240.75 C 514.62 248.77 513.73 256.92 514.05 265.00 C 512.83 289.69 509.03 314.45 500.89 337.88 C 497.46 348.58 493.32 359.08 488.00 368.99 C 478.95 388.25 466.78 405.90 453.17 422.19 C 436.97 441.77 417.06 457.99 395.80 471.79 C 365.14 490.93 330.53 504.09 294.59 508.56 C 286.81 510.16 278.85 509.81 271.03 510.94 C 247.50 511.64 223.84 509.55 200.92 504.09 C 153.58 493.06 110.10 467.46 76.25 432.75 C 68.59 424.03 60.84 415.36 54.13 405.86 C 26.38 367.59 9.34 321.39 6.75 274.11 C 6.17 270.10 5.82 266.05 5.97 262.00 C 6.20 254.92 5.48 247.78 6.64 240.75 C 8.53 213.99 14.16 187.36 24.57 162.57 C 35.68 134.82 51.97 109.21 72.15 87.17 C 76.62 81.66 81.51 76.46 87.12 72.09 C 100.94 58.94 116.47 47.54 133.06 38.09 C 167.09 18.05 206.05 6.80 245.41 4.43 M 245.41 7.43 C 188.68 10.70 133.14 33.75 91.25 72.25 C 87.65 76.34 82.92 79.29 79.62 83.65 C 76.41 87.43 72.50 90.56 69.52 94.54 C 57.40 108.83 46.43 124.22 38.00 140.99 C 27.33 160.08 20.47 181.06 15.18 202.20 C 11.00 221.84 8.50 241.90 8.98 262.00 C 8.55 268.39 9.98 274.66 10.10 281.03 C 11.73 299.59 15.88 317.85 21.38 335.63 C 25.77 347.55 29.99 359.61 36.25 370.71 C 47.22 392.58 61.53 412.83 78.62 430.34 C 80.88 433.42 83.58 436.12 86.66 438.37 C 122.00 472.84 168.20 495.70 216.74 504.25 C 228.02 506.66 239.55 506.95 250.98 508.02 C 259.69 507.78 268.47 508.63 277.11 507.24 C 288.73 506.92 300.22 504.90 311.58 502.60 C 328.85 499.31 345.54 493.56 361.67 486.64 C 374.63 480.23 387.80 474.05 399.60 465.60 C 408.92 459.81 417.42 452.86 425.71 445.70 C 428.44 443.08 431.09 440.37 434.12 438.09 C 439.77 433.73 443.44 427.46 448.74 422.74 C 461.79 408.00 472.67 391.45 482.27 374.30 C 500.27 340.07 510.02 301.62 511.04 263.00 C 510.80 255.29 511.55 247.53 510.25 239.89 C 509.15 218.24 504.24 196.95 497.64 176.36 C 494.47 168.29 491.70 160.03 487.77 152.28 C 484.50 143.69 479.25 136.10 474.92 128.05 C 467.96 117.20 460.94 106.33 452.38 96.65 C 448.61 91.45 443.39 87.56 439.57 82.42 C 437.85 80.12 435.54 78.41 433.34 76.62 C 393.10 37.44 338.90 13.14 283.03 8.10 C 277.32 8.08 271.71 6.71 266.00 6.96 C 259.14 7.23 252.24 6.51 245.41 7.43 Z" />
</g>
<g id="#abd0e0ff">
<path fill="#abd0e0" opacity="1.00" d=" M 252.84 110.81 C 255.55 108.81 257.93 106.26 261.07 104.93 C 262.86 104.88 264.25 106.35 265.69 107.24 C 275.87 115.30 286.46 122.83 296.57 130.96 C 295.22 131.88 293.87 132.79 292.50 133.67 C 289.57 131.95 286.30 132.90 283.70 134.74 C 268.11 145.16 252.88 156.27 239.75 169.72 C 231.76 177.46 224.28 185.73 217.70 194.70 C 213.47 200.35 210.99 208.06 203.62 210.44 C 194.57 196.64 183.76 184.14 172.67 171.97 C 199.32 151.48 226.14 131.23 252.84 110.81 Z" />
</g>
<g id="#375b79ff">
<path fill="#375b79" opacity="1.00" d=" M 296.57 130.96 C 316.11 145.29 335.13 160.33 354.52 174.86 C 354.90 178.36 353.67 181.78 350.32 183.34 C 350.90 182.12 351.47 180.90 352.06 179.69 C 338.17 166.79 322.36 156.19 307.51 144.46 C 304.24 142.01 301.21 139.09 297.38 137.52 C 294.63 136.43 291.92 138.29 289.57 139.51 C 275.13 148.28 261.40 158.45 249.74 170.74 C 242.69 178.03 234.97 184.73 228.86 192.87 C 223.75 199.06 218.81 205.42 213.10 211.08 C 213.01 210.52 212.83 209.40 212.74 208.84 C 233.13 178.11 260.94 152.61 292.50 133.67 C 293.87 132.79 295.22 131.88 296.57 130.96 Z" />
</g>
<g id="#b9dce8ff">
<path fill="#b9dce8" opacity="1.00" d=" M 283.70 134.74 C 286.30 132.90 289.57 131.95 292.50 133.67 C 260.94 152.61 233.13 178.11 212.74 208.84 C 211.05 211.28 209.35 213.71 207.78 216.23 C 206.37 214.32 204.98 212.40 203.62 210.44 C 210.99 208.06 213.47 200.35 217.70 194.70 C 224.28 185.73 231.76 177.46 239.75 169.72 C 252.88 156.27 268.11 145.16 283.70 134.74 Z" />
</g>
<g id="#456884ff">
<path fill="#456884" opacity="1.00" d=" M 289.57 139.51 C 291.92 138.29 294.63 136.43 297.38 137.52 C 301.21 139.09 304.24 142.01 307.51 144.46 C 322.36 156.19 338.17 166.79 352.06 179.69 C 351.47 180.90 350.90 182.12 350.32 183.34 C 342.06 188.37 334.31 194.25 325.66 198.64 C 316.05 203.53 306.47 208.53 296.38 212.34 C 270.45 222.47 242.82 227.96 215.02 229.00 C 210.24 229.18 205.45 228.96 200.68 228.69 C 202.97 224.50 205.29 220.31 207.78 216.23 C 209.35 213.71 211.05 211.28 212.74 208.84 C 212.83 209.40 213.01 210.52 213.10 211.08 C 218.81 205.42 223.75 199.06 228.86 192.87 C 234.97 184.73 242.69 178.03 249.74 170.74 C 261.40 158.45 275.13 148.28 289.57 139.51 Z" />
</g>
<g id="#7895afff">
<path fill="#7895af" opacity="1.00" d=" M 122.34 210.22 C 139.10 197.46 155.81 184.61 172.67 171.97 C 183.76 184.14 194.57 196.64 203.62 210.44 C 204.98 212.40 206.37 214.32 207.78 216.23 C 205.29 220.31 202.97 224.50 200.68 228.69 C 199.74 230.42 198.86 232.19 198.00 233.98 C 194.21 234.28 190.41 234.44 186.61 234.58 C 178.70 253.31 170.79 272.02 162.99 290.79 C 167.16 291.00 171.33 291.10 175.50 291.13 C 171.22 296.06 161.60 294.51 160.25 287.78 C 160.45 282.55 163.38 277.94 165.18 273.14 C 171.85 258.01 176.76 241.58 187.96 228.98 C 172.64 226.07 156.84 225.16 142.05 219.95 C 138.18 218.83 136.76 214.60 133.66 212.44 C 130.60 212.09 127.23 214.47 126.59 217.55 C 125.23 223.38 126.16 229.39 126.62 235.28 C 127.25 241.83 127.00 248.43 126.99 255.00 C 127.01 272.00 126.97 289.00 126.98 306.00 C 126.89 317.61 127.33 329.24 126.38 340.82 C 125.92 346.10 125.97 351.41 126.25 356.69 C 131.47 357.04 136.72 357.28 141.94 356.75 C 149.57 356.01 157.26 356.01 164.87 355.05 C 166.31 356.14 167.75 357.25 169.19 358.36 C 169.77 358.25 170.95 358.04 171.53 357.94 C 171.55 358.43 171.59 359.41 171.61 359.90 L 171.59 360.61 C 155.18 360.48 138.76 360.62 122.35 360.65 C 122.37 310.51 122.35 260.37 122.34 210.22 Z" />
</g>
<g id="#255675ff">
<path fill="#255675" opacity="1.00" d=" M 354.52 174.86 C 355.04 175.47 356.14 175.76 356.23 176.65 C 356.46 179.07 355.98 182.06 358.45 183.52 C 369.24 191.36 379.68 199.68 390.50 207.49 C 392.33 208.96 394.36 210.38 395.51 212.49 C 396.52 215.55 396.21 218.84 396.23 222.01 C 395.74 238.36 396.17 254.72 395.82 271.07 C 394.81 284.02 395.29 297.02 395.17 310.00 C 395.28 320.35 394.75 330.73 395.82 341.05 C 396.05 345.43 396.82 350.04 395.30 354.27 C 393.74 356.56 390.44 355.99 388.05 356.27 C 340.39 355.82 292.72 356.48 245.06 355.94 C 244.73 345.18 245.02 334.35 243.11 323.70 C 242.11 315.16 240.92 306.64 239.48 298.17 C 239.91 293.74 243.26 290.85 246.90 288.84 C 246.90 289.35 246.89 290.38 246.89 290.90 C 251.76 291.08 256.64 291.00 261.52 290.89 C 262.75 287.23 264.09 283.59 265.30 279.92 C 272.68 279.81 280.06 279.87 287.44 280.02 C 288.80 283.64 289.41 288.04 292.24 290.80 C 297.12 291.18 302.09 291.23 306.95 290.53 C 308.35 289.43 309.71 288.27 311.07 287.12 C 317.22 291.30 323.76 295.42 331.25 296.60 C 339.44 297.77 348.17 297.46 355.72 293.74 C 359.19 292.15 362.80 289.82 363.93 285.94 C 365.75 279.85 364.89 273.41 364.82 267.16 C 363.57 266.75 362.32 266.34 361.08 265.93 C 360.65 273.14 361.36 280.40 360.34 287.58 C 359.75 277.53 360.21 267.45 359.96 257.39 C 359.24 257.41 357.79 257.44 357.07 257.45 C 356.22 255.43 355.36 253.42 354.50 251.42 C 357.70 247.87 362.34 244.43 362.58 239.29 C 360.97 234.87 356.44 232.41 352.33 230.69 C 341.61 226.22 329.17 227.88 318.98 232.98 C 312.05 236.42 306.35 242.58 304.16 250.08 C 302.97 254.40 302.47 258.86 301.57 263.24 C 295.17 254.54 293.85 243.22 287.54 234.47 C 284.04 229.62 277.17 230.84 272.00 231.07 C 266.87 231.18 263.83 235.78 261.89 239.94 C 256.21 251.05 253.00 263.25 247.10 274.25 C 244.57 262.34 246.96 250.09 245.81 238.06 C 245.45 236.10 244.45 234.35 243.60 232.58 C 243.23 233.05 242.50 233.98 242.14 234.45 C 237.43 234.49 232.72 234.53 228.01 234.67 C 228.02 241.86 228.00 249.05 227.92 256.24 C 227.76 254.91 227.55 253.60 227.30 252.29 C 226.40 247.10 222.19 243.57 219.93 239.03 C 218.21 235.73 216.70 232.32 215.02 229.00 C 242.82 227.96 270.45 222.47 296.38 212.34 C 306.47 208.53 316.05 203.53 325.66 198.64 C 334.31 194.25 342.06 188.37 350.32 183.34 C 353.67 181.78 354.90 178.36 354.52 174.86 Z" />
</g>
<g id="#154766ff">
<path fill="#154766" opacity="1.00" d=" M 358.45 183.52 C 355.98 182.06 356.46 179.07 356.23 176.65 C 359.61 178.49 362.54 181.02 365.61 183.34 C 377.34 192.34 389.15 201.23 400.88 210.23 C 400.48 260.37 400.45 310.50 400.92 360.64 C 348.94 360.45 296.96 360.50 244.99 360.59 C 244.68 359.26 244.38 357.94 244.10 356.61 C 242.25 345.76 243.07 334.66 243.11 323.70 C 245.02 334.35 244.73 345.18 245.06 355.94 C 292.72 356.48 340.39 355.82 388.05 356.27 C 390.44 355.99 393.74 356.56 395.30 354.27 C 396.82 350.04 396.05 345.43 395.82 341.05 C 394.75 330.73 395.28 320.35 395.17 310.00 C 395.29 297.02 394.81 284.02 395.82 271.07 C 396.17 254.72 395.74 238.36 396.23 222.01 C 396.21 218.84 396.52 215.55 395.51 212.49 C 394.36 210.38 392.33 208.96 390.50 207.49 C 379.68 199.68 369.24 191.36 358.45 183.52 Z" />
</g>
<g id="#7d9cb2ff">
<path fill="#7d9cb2" opacity="1.00" d=" M 126.59 217.55 C 127.23 214.47 130.60 212.09 133.66 212.44 C 136.76 214.60 138.18 218.83 142.05 219.95 C 156.84 225.16 172.64 226.07 187.96 228.98 C 176.76 241.58 171.85 258.01 165.18 273.14 C 163.38 277.94 160.45 282.55 160.25 287.78 C 161.60 294.51 171.22 296.06 175.50 291.13 C 176.10 291.13 177.29 291.11 177.89 291.10 C 177.04 293.37 176.38 295.71 175.83 298.07 C 171.56 317.68 170.82 337.93 171.53 357.94 C 170.95 358.04 169.77 358.25 169.19 358.36 C 167.75 357.25 166.31 356.14 164.87 355.05 C 157.26 356.01 149.57 356.01 141.94 356.75 C 136.72 357.28 131.47 357.04 126.25 356.69 C 125.97 351.41 125.92 346.10 126.38 340.82 C 127.33 329.24 126.89 317.61 126.98 306.00 C 126.97 289.00 127.01 272.00 126.99 255.00 C 127.00 248.43 127.25 241.83 126.62 235.28 C 126.16 229.39 125.23 223.38 126.59 217.55 Z" />
</g>
<g id="#1a4d6fff">
<path fill="#1a4d6f" opacity="1.00" d=" M 318.98 232.98 C 329.17 227.88 341.61 226.22 352.33 230.69 C 356.44 232.41 360.97 234.87 362.58 239.29 C 362.34 244.43 357.70 247.87 354.50 251.42 C 355.36 253.42 356.22 255.43 357.07 257.45 C 350.28 257.58 343.48 257.51 336.69 257.38 C 336.72 261.04 336.46 264.71 336.73 268.37 C 340.29 269.32 344.03 268.72 347.67 268.86 C 347.57 272.36 347.62 275.87 347.58 279.38 C 341.55 280.31 334.76 281.21 329.37 277.64 C 318.75 270.93 319.67 252.52 330.90 246.86 C 336.45 243.71 343.52 244.78 348.61 248.34 C 349.72 248.79 351.11 250.59 352.23 249.20 C 355.05 246.39 357.43 243.16 359.98 240.10 C 347.15 230.20 326.58 229.97 315.05 242.03 C 302.29 254.97 305.44 279.73 321.62 288.42 C 333.58 294.65 348.38 292.94 360.34 287.58 C 361.36 280.40 360.65 273.14 361.08 265.93 C 362.32 266.34 363.57 266.75 364.82 267.16 C 364.89 273.41 365.75 279.85 363.93 285.94 C 362.80 289.82 359.19 292.15 355.72 293.74 C 348.17 297.46 339.44 297.77 331.25 296.60 C 323.76 295.42 317.22 291.30 311.07 287.12 C 309.71 288.27 308.35 289.43 306.95 290.53 C 298.78 271.96 291.37 253.06 283.42 234.40 C 279.00 234.41 274.58 234.42 270.16 234.34 C 269.63 235.42 269.10 236.50 268.60 237.60 C 267.40 237.95 265.77 237.78 265.11 239.09 C 262.71 242.62 261.29 246.69 259.57 250.57 C 256.55 257.90 253.31 265.14 250.67 272.62 C 249.56 275.77 247.94 278.72 246.14 281.53 C 242.46 273.14 244.48 263.83 244.00 255.00 C 243.59 248.15 245.33 240.85 242.14 234.45 C 242.50 233.98 243.23 233.05 243.60 232.58 C 244.45 234.35 245.45 236.10 245.81 238.06 C 246.96 250.09 244.57 262.34 247.10 274.25 C 253.00 263.25 256.21 251.05 261.89 239.94 C 263.83 235.78 266.87 231.18 272.00 231.07 C 277.17 230.84 284.04 229.62 287.54 234.47 C 293.85 243.22 295.17 254.54 301.57 263.24 C 302.47 258.86 302.97 254.40 304.16 250.08 C 306.35 242.58 312.05 236.42 318.98 232.98 Z" />
</g>
<g id="#014966ff">
<path fill="#014966" opacity="1.00" d=" M 198.00 233.98 C 198.86 232.19 199.74 230.42 200.68 228.69 C 205.45 228.96 210.24 229.18 215.02 229.00 C 216.70 232.32 218.21 235.73 219.93 239.03 C 222.19 243.57 226.40 247.10 227.30 252.29 C 226.04 253.70 224.15 254.96 224.15 257.07 C 223.64 263.21 224.33 269.40 223.65 275.54 C 218.76 272.10 217.46 266.01 215.17 260.85 C 211.39 252.12 208.83 242.73 203.15 234.95 C 202.52 235.17 201.27 235.61 200.64 235.83 C 199.77 235.20 198.88 234.59 198.00 233.98 Z" />
</g>
<g id="#003d5dff">
<path fill="#003d5d" opacity="1.00" d=" M 200.64 235.83 C 201.27 235.61 202.52 235.17 203.15 234.95 C 208.83 242.73 211.39 252.12 215.17 260.85 C 217.46 266.01 218.76 272.10 223.65 275.54 C 224.33 269.40 223.64 263.21 224.15 257.07 C 224.15 254.96 226.04 253.70 227.30 252.29 C 227.55 253.60 227.76 254.91 227.92 256.24 C 228.11 267.80 227.87 279.36 228.10 290.91 C 231.74 291.01 235.39 291.00 239.03 291.03 L 239.04 292.06 C 236.67 293.37 233.94 294.73 231.17 293.97 C 229.11 293.25 227.37 291.88 225.59 290.67 C 220.51 292.76 214.97 295.26 209.39 293.59 C 204.05 292.53 202.46 285.62 197.00 284.94 C 193.46 284.44 189.64 283.83 186.19 285.10 C 182.23 289.00 180.74 294.97 175.83 298.07 C 176.38 295.71 177.04 293.37 177.89 291.10 C 179.35 287.40 180.74 283.67 182.04 279.91 C 189.30 279.84 196.56 280.00 203.82 279.94 C 205.15 283.65 206.60 287.32 208.15 290.95 C 213.26 291.03 218.37 291.03 223.47 290.94 C 215.95 272.54 208.25 254.20 200.64 235.83 Z" />
</g>
<g id="#124466ff">
<path fill="#124466" opacity="1.00" d=" M 242.14 234.45 C 245.33 240.85 243.59 248.15 244.00 255.00 C 244.48 263.83 242.46 273.14 246.14 281.53 C 247.94 278.72 249.56 275.77 250.67 272.62 C 253.31 265.14 256.55 257.90 259.57 250.57 C 261.29 246.69 262.71 242.62 265.11 239.09 C 265.77 237.78 267.40 237.95 268.60 237.60 C 261.34 254.66 254.54 271.94 246.90 288.84 C 243.26 290.85 239.91 293.74 239.48 298.17 C 239.25 296.14 239.09 294.10 239.04 292.06 L 239.03 291.03 C 239.75 291.03 241.18 291.03 241.90 291.03 C 242.18 272.17 241.68 253.30 242.14 234.45 Z" />
</g>
<g id="#003b5eff">
<path fill="#003b5e" opacity="1.00" d=" M 192.33 250.95 C 192.66 251.03 193.33 251.19 193.66 251.27 C 195.50 257.26 197.83 263.09 200.04 268.96 C 195.36 269.04 190.68 268.99 186.00 268.99 C 188.28 263.04 190.54 257.07 192.33 250.95 Z" />
</g>
<g id="#164b71ff">
<path fill="#164b71" opacity="1.00" d=" M 269.59 268.98 C 271.74 262.68 273.65 256.22 276.79 250.33 C 278.75 256.62 281.04 262.80 283.36 268.96 C 278.77 269.03 274.18 269.02 269.59 268.98 Z" />
</g>
<g id="#004967ff">
<path fill="#004967" opacity="1.00" d=" M 186.19 285.10 C 189.64 283.83 193.46 284.44 197.00 284.94 C 202.46 285.62 204.05 292.53 209.39 293.59 C 214.97 295.26 220.51 292.76 225.59 290.67 C 227.37 291.88 229.11 293.25 231.17 293.97 C 233.94 294.73 236.67 293.37 239.04 292.06 C 239.09 294.10 239.25 296.14 239.48 298.17 C 240.92 306.64 242.11 315.16 243.11 323.70 C 243.07 334.66 242.25 345.76 244.10 356.61 C 235.43 355.58 226.70 356.15 218.00 356.04 C 210.00 356.01 202.00 356.09 194.00 356.03 C 186.72 355.91 179.36 356.93 172.14 355.49 C 171.95 356.95 171.75 358.42 171.61 359.90 C 171.59 359.41 171.55 358.43 171.53 357.94 C 170.82 337.93 171.56 317.68 175.83 298.07 C 180.74 294.97 182.23 289.00 186.19 285.10 Z" />
</g>
<g id="#013c59ff">
<path fill="#013c59" opacity="1.00" d=" M 172.14 355.49 C 179.36 356.93 186.72 355.91 194.00 356.03 C 202.00 356.09 210.00 356.01 218.00 356.04 C 226.70 356.15 235.43 355.58 244.10 356.61 C 244.38 357.94 244.68 359.26 244.99 360.59 C 220.52 360.57 196.06 360.59 171.59 360.61 L 171.61 359.90 C 171.75 358.42 171.95 356.95 172.14 355.49 Z" />
</g>
</svg>
